<?xml version="1.0" encoding="utf-8"?>
<!-- Generator: Adobe Illustrator 19.2.1, SVG Export Plug-In . SVG Version: 6.00 Build 0)  -->
<svg version="1.1" id="Layer_1" xmlns="http://www.w3.org/2000/svg" xmlns:xlink="http://www.w3.org/1999/xlink" x="0px" y="0px"
	 viewBox="0 0 466.4 246.8" style="enable-background:new 0 0 466.4 246.8;" xml:space="preserve">
<style type="text/css">
	.st0{opacity:0.4;fill:#92D6CD;}
	.st1{fill:#323945;}
	.st2{fill:#FFA81F;}
	.st3{fill:#434C5C;}
	.st4{fill:#FFFFFF;}
	.st5{fill:#F1F2F2;}
	.st6{fill:#59A4AE;}
	.st7{fill:none;stroke:#434C5C;stroke-width:4;stroke-linecap:round;stroke-miterlimit:10;}
	.st8{fill:none;stroke:#FF8543;stroke-width:9;stroke-linecap:round;stroke-miterlimit:10;}
	.st9{fill:#92D6CD;}
</style>
<g>
	<ellipse class="st0" cx="92.7" cy="225.5" rx="54.2" ry="15.8"/>
	<g>
		<path class="st1" d="M210.6,162.5c5.6-3.3,1.8-15.6-9.6-12.3c-9.6,2.8-21.3,7.7-21.3,7.7c-8-18.5-12.7-27.9-18.7-28.8v32.8
			c0,3.1-0.1,6-0.5,8.8c6.4,13.8,16.7,12.5,26.2,11.2c10.2-1.4,19.9-6.8,24.1-8.8C219.5,168.9,213.9,161.2,210.6,162.5z"/>
		<path class="st1" d="M24,121.7c-3,0.4-3.9,2.1-6.4,7.4c-4.9,10.5-12.2,37.2-15,46.9c-2.8,9.7,4,14.6,11.3,11.3
			c0,0,9.8,5.8,13.2-6.1c-2.1-5.7-3.1-12.2-3.1-19.4V121.7z"/>
		<path class="st2" d="M52,222.9c0,0,3.1,10.2,14,6.5c0,0,6.5,11.2,15.2,2.7c3.2-3.1,6-9.6,5.9-15.9c-14.2-0.6-27.2-3.7-37.6-9.5
			C40.2,214.6,41.8,222.7,52,222.9z"/>
		<path class="st2" d="M104.2,232.1c8.7,8.5,15.2-2.7,15.2-2.7c10.9,3.6,14-6.5,14-6.5c10.2-0.2,11.8-8.4,2.5-16.3
			c-10.4,5.8-23.4,8.9-37.5,9.6C98.2,222.5,101,229,104.2,232.1z"/>
		<path class="st3" d="M161,129V88.5c0-38-30.5-68.7-68.5-68.7S24,50.5,24,88.5v33.2v40.1c0,7.3,1.1,13.7,3.1,19.4
			c4.1,11.3,11.9,19.7,22.3,25.5c10.4,5.8,23.4,8.9,37.6,9.5c1.8,0.1,3.7,0.1,5.6,0.1c1.9,0,3.9-0.1,5.8-0.1
			c14.2-0.7,27.1-3.8,37.5-9.6c13.3-7.4,22.3-19.3,24.7-36.1c0.4-2.8,0.5-5.7,0.5-8.8V129z M146,154.8c0,30.1-23.4,47.1-53.5,47.3
			C62.4,201.9,39,185,39,154.8V96.3c0-17.5,1.5-32.2,16.8-42.6c11.9-8.1,33.7-6.4,37.1,11.6c3.3-17.9,24.6-19.6,36.5-11.6
			C144.8,64,146,78.7,146,96.3V154.8z"/>
		<path class="st4" d="M129.3,53.6c-11.9-8.1-33.6-6.4-36.9,11.6c-3.3-17.9-24.8-19.6-36.7-11.6C40.3,64,39,78.7,39,96.3v58.6
			c0,30.1,23.4,47.1,53.5,47.3c30.1-0.2,53.5-17.2,53.5-47.3V96.3C146,78.7,144.7,64,129.3,53.6z M108.1,105.8
			c-5.4,11.6-13.2,16-15.9,16c-2.6,0-10.5-4.4-15.9-16c-2.7-5.9,8.7-11.3,15.9-11.3C99.4,94.5,110.9,99.9,108.1,105.8z"/>
		<path class="st2" d="M92.2,94.5c-7.1,0-18.6,5.3-15.9,11.3c5.4,11.6,13.2,16,15.9,16c2.6,0,10.5-4.4,15.9-16
			C110.9,99.9,99.4,94.5,92.2,94.5z"/>
	</g>
	<g>
		<path class="st5" d="M231.1,196.4c45.5-2.5,85.8,11.5,116.8,10.9c28.5-0.5,65.6-3.2,78.5-0.9c13.7,2.5,23.7,6.7,29.9,11.6
			c16.4-11.7,6.8-30.5-29.9-37.1c-12.9-2.3-50,0.4-78.5,0.9c-31,0.5-71.2-13.4-116.8-10.9c-45.5,2.5-64.9,24.8-49.8,43.6
			C189.2,205,206.3,197.7,231.1,196.4z"/>
		<path class="st6" d="M228.4,236.5c79.3,15.5,126.9-14.2,164.2-10c31.8,3.6,53.1-1,63.6-8.5c-6.2-4.9-16.1-9.1-29.9-11.6
			c-12.9-2.3-50,0.4-78.5,0.9c-31,0.5-71.2-13.4-116.8-10.9c-24.9,1.3-41.9,8.6-49.8,18C188.6,223.5,204,231.7,228.4,236.5z"/>
	</g>
	<g>
		<g>
			<line class="st7" x1="294.8" y1="9.4" x2="300.2" y2="118.4"/>
			<line class="st8" x1="176.3" y1="193" x2="295.7" y2="8.1"/>
		</g>
		<g>
			<g>
				<path class="st9" d="M391.1,174.5c1.3,5.3-2,10.8-7.4,12.1l-118.2,28.7c-5.3,1.3-10.8-2-12.1-7.4L238,144.1
					c-1.3-5.3,2-10.8,7.4-12.1l118.2-28.7c5.3-1.3,10.8,2,12.1,7.4L391.1,174.5z"/>
			</g>
			<g>
				<g>
					<path class="st4" d="M264.4,166.7l-5.7-23.6c-0.1-0.5,0-0.9,0.4-1.2c0.3-0.4,0.8-0.6,1.4-0.8l13-3.2c0.5-0.1,0.9,0,1.3,0.4
						c0.4,0.4,0.6,0.8,0.7,1.3c0.1,0.6,0.1,1.1,0,1.6c-0.2,0.5-0.5,0.8-0.9,0.9l-10.3,2.5l1.8,7.3l5.5-1.3c0.5-0.1,0.9,0,1.2,0.3
						c0.4,0.3,0.6,0.7,0.7,1.2c0.1,0.5,0.1,0.9-0.1,1.4c-0.2,0.4-0.5,0.7-1,0.8l-5.5,1.3l1.8,7.3l10.3-2.5c0.5-0.1,0.9,0,1.2,0.4
						c0.4,0.3,0.6,0.8,0.8,1.4c0.1,0.5,0.1,1,0,1.5c-0.2,0.5-0.5,0.8-1,0.9l-13,3.2c-0.6,0.1-1.1,0.1-1.6,0
						C264.8,167.5,264.5,167.2,264.4,166.7z"/>
					<path class="st4" d="M283.7,162l-5.8-23.7c-0.1-0.4,0-0.8,0.2-1.1c0.2-0.4,0.5-0.6,1-0.7l7.2-1.8c5.8-1.4,9.2,0.4,10.5,5.5
						c0.5,2,0.4,3.7-0.1,5.1c-0.6,1.4-1.5,2.5-2.9,3.3l6.9,7.7c0.2,0.1,0.3,0.3,0.3,0.5c0.1,0.6,0,1.2-0.5,1.9
						c-0.5,0.7-1.1,1.1-1.8,1.3c-0.7,0.2-1.3-0.1-1.9-0.7l-7.6-8.8l-3.1,0.7l2.3,9.5c0.1,0.5,0,0.9-0.4,1.3
						c-0.4,0.4-0.9,0.6-1.6,0.8c-0.6,0.2-1.2,0.2-1.8,0C284.2,162.8,283.8,162.5,283.7,162z M285.3,147.7l4-1c2.6-0.6,3.6-2.2,3-4.8
						c-0.6-2.6-2.2-3.6-4.8-2.9l-4,1L285.3,147.7z"/>
					<path class="st4" d="M304.5,157l-5.8-23.7c-0.1-0.4,0-0.8,0.2-1.1c0.2-0.4,0.5-0.6,1-0.7l7.2-1.8c5.8-1.4,9.2,0.4,10.5,5.5
						c0.5,2,0.4,3.7-0.1,5.1c-0.6,1.4-1.5,2.5-2.9,3.3l6.9,7.7c0.2,0.1,0.3,0.3,0.3,0.5c0.1,0.6,0,1.2-0.5,1.9
						c-0.5,0.7-1.1,1.1-1.8,1.3c-0.7,0.2-1.3-0.1-1.9-0.7l-7.6-8.8l-3.1,0.7l2.3,9.5c0.1,0.5,0,0.9-0.4,1.3
						c-0.4,0.4-0.9,0.6-1.6,0.8c-0.6,0.2-1.2,0.2-1.8,0C304.9,157.8,304.6,157.4,304.5,157z M306,142.6l4-1c2.6-0.6,3.6-2.2,3-4.8
						c-0.6-2.6-2.2-3.6-4.8-2.9l-4,1L306,142.6z"/>
					<path class="st4" d="M323.4,145.4l-2.5-10.2c-0.7-2.9-0.4-5.2,0.8-6.9c1.2-1.7,3.1-2.9,5.7-3.5s4.8-0.5,6.7,0.5
						c1.9,1,3.2,2.9,3.9,5.8l2.5,10.2c0.7,2.9,0.4,5.2-0.8,6.9c-1.2,1.7-3.1,2.9-5.7,3.5c-2.6,0.6-4.8,0.5-6.7-0.5
						C325.3,150.2,324.1,148.3,323.4,145.4z M328.1,144.2c0.7,2.8,2.3,3.9,4.8,3.3c2.5-0.6,3.5-2.3,2.8-5.1l-2.5-10.2
						c-0.7-2.8-2.3-3.9-4.8-3.3c-2.5,0.6-3.4,2.3-2.8,5.1L328.1,144.2z"/>
					<path class="st4" d="M346.1,146.9l-5.8-23.7c-0.1-0.4,0-0.8,0.2-1.1c0.2-0.4,0.5-0.6,1-0.7l7.2-1.8c5.8-1.4,9.2,0.4,10.5,5.5
						c0.5,2,0.4,3.7-0.1,5.1c-0.6,1.4-1.5,2.5-2.9,3.3l6.9,7.7c0.2,0.1,0.3,0.3,0.3,0.5c0.1,0.6,0,1.2-0.5,1.9
						c-0.5,0.7-1.1,1.1-1.8,1.3c-0.7,0.2-1.3-0.1-1.9-0.7l-7.6-8.8l-3.1,0.7l2.3,9.5c0.1,0.5,0,0.9-0.4,1.3
						c-0.4,0.4-0.9,0.6-1.6,0.8c-0.6,0.2-1.2,0.2-1.8,0C346.5,147.6,346.2,147.3,346.1,146.9z M347.6,132.5l4-1
						c2.6-0.6,3.6-2.2,3-4.8c-0.6-2.6-2.2-3.6-4.8-2.9l-4,1L347.6,132.5z"/>
				</g>
			</g>
			<g>
				<g>
					<path class="st4" d="M291.5,188.8c-0.1-0.3-0.1-0.6,0-1l4.5-18.9c0.2-0.9,0.8-1.5,1.7-1.7c0.5-0.1,1-0.1,1.7,0.2
						c0.6,0.2,1,0.6,1.1,1.1c0,0.2,0,0.4,0,0.7l-3.6,15.7l4.3-1l-1-4c-0.1-0.5,0-1,0.4-1.3c0.4-0.4,0.9-0.6,1.6-0.8s1.2-0.2,1.8,0
						c0.5,0.2,0.9,0.5,1,1l1,4l1.7-0.4c0.5-0.1,0.9,0,1.2,0.4c0.4,0.3,0.6,0.8,0.8,1.4c0.1,0.5,0.1,1-0.1,1.5
						c-0.2,0.5-0.5,0.8-0.9,0.9l-1.7,0.4l1.1,4.5c0.1,0.5,0,0.9-0.4,1.3c-0.4,0.4-0.9,0.7-1.6,0.8c-0.6,0.2-1.2,0.2-1.8,0
						c-0.5-0.2-0.9-0.5-1-1l-1.1-4.5l-8.7,2.1c-0.5,0.1-0.9,0.1-1.3-0.1C291.9,189.6,291.6,189.3,291.5,188.8z"/>
					<path class="st4" d="M311.4,183.4l-2.5-10.2c-0.7-2.9-0.4-5.2,0.8-6.9c1.2-1.7,3.1-2.9,5.7-3.5c2.6-0.6,4.8-0.5,6.7,0.5
						c1.9,1,3.2,2.9,3.9,5.8l2.5,10.2c0.7,2.9,0.4,5.2-0.8,6.9c-1.2,1.7-3.1,2.9-5.7,3.5c-2.6,0.6-4.8,0.5-6.7-0.5
						C313.4,188.3,312.1,186.3,311.4,183.4z M316.1,182.3c0.7,2.8,2.3,3.9,4.8,3.3c2.5-0.6,3.5-2.3,2.8-5.1l-2.5-10.2
						c-0.7-2.8-2.3-3.9-4.8-3.3c-2.5,0.6-3.4,2.3-2.8,5.1L316.1,182.3z M317.8,178.1c-0.4-0.3-0.7-0.7-0.8-1.2
						c-0.1-0.6-0.1-1,0.1-1.5c0.2-0.4,0.6-0.7,1.1-0.8c0.5-0.1,1-0.1,1.3,0.2c0.4,0.3,0.6,0.7,0.8,1.2c0.1,0.6,0.1,1-0.1,1.5
						c-0.2,0.4-0.6,0.7-1.1,0.8C318.7,178.5,318.2,178.4,317.8,178.1z"/>
					<path class="st4" d="M330.2,179.4c-0.1-0.3-0.1-0.6,0-1l4.5-18.9c0.2-0.9,0.8-1.5,1.7-1.7c0.5-0.1,1-0.1,1.7,0.2
						c0.6,0.2,1,0.6,1.1,1.1c0,0.2,0,0.4,0,0.7l-3.6,15.7l4.3-1l-1-4c-0.1-0.5,0-1,0.4-1.3c0.4-0.4,0.9-0.6,1.6-0.8
						c0.7-0.2,1.2-0.2,1.8,0c0.5,0.2,0.9,0.5,1,1l1,4l1.7-0.4c0.5-0.1,0.9,0,1.2,0.4c0.4,0.3,0.6,0.8,0.8,1.4c0.1,0.5,0.1,1-0.1,1.5
						c-0.2,0.5-0.5,0.8-0.9,0.9l-1.7,0.4l1.1,4.5c0.1,0.5,0,0.9-0.4,1.3c-0.4,0.4-0.9,0.7-1.6,0.8c-0.6,0.2-1.2,0.1-1.8,0
						c-0.5-0.2-0.9-0.5-1-1l-1.1-4.5l-8.7,2.1c-0.5,0.1-0.9,0.1-1.3-0.2C330.6,180.2,330.3,179.9,330.2,179.4z"/>
				</g>
			</g>
		</g>
	</g>
	<g>
		<circle class="st3" cx="66.8" cy="83.9" r="4.7"/>
		<circle class="st3" cx="118.5" cy="83.9" r="4.7"/>
	</g>
</g>
</svg>
