<?xml version="1.0" encoding="utf-8"?>
<!-- Generator: Adobe Illustrator 19.2.1, SVG Export Plug-In . SVG Version: 6.00 Build 0)  -->
<svg version="1.1" id="Objects" xmlns="http://www.w3.org/2000/svg" xmlns:xlink="http://www.w3.org/1999/xlink" x="0px" y="0px"
	 viewBox="0 0 417.7 31.3" style="enable-background:new 0 0 417.7 31.3;" xml:space="preserve">
<style type="text/css">
	.st0{fill:#231F20;}
</style>
<g>
	<g>
		<path class="st0" d="M236.4,11.1c4.9-0.8,10.3,0,15,2.1c4.7,2.1,9.1,5,13.8,6.9s10.3,2.9,15,0.9c-9.8,6.4-23.4,6.1-32.9-0.5
			c-4.5-3.1-10.2-8.8-15.6-8.1c0.6-0.3,1.9-0.7,2.5-1C234.2,11.4,235.8,11.2,236.4,11.1z"/>
		<path class="st0" d="M222.1,16.3c3.8-0.9,8.3-0.5,11.1,2.2c1.1,1.1,1.9,2.5,3.1,3.5c1.9,1.4,4.4,1.5,6.7,1.4
			c-2.7,0.3-5.5,0.3-8.3,0c-1.5-0.2-3.1-0.5-4.5-1.2c-1.6-0.8-2.9-2.2-4.4-3.3c-1.4-1.2-3.1-2.2-4.9-2.2L222.1,16.3z"/>
		<path class="st0" d="M214.7,20.5c3.3-0.8,7.2-0.5,9.6,2c1,1,1.6,2.2,2.7,3c1.6,1.2,3.8,1.3,5.8,1.3c-2.4,0.3-4.8,0.3-7.2,0
			c-1.3-0.2-2.7-0.4-3.9-1.1c-1.4-0.7-2.6-1.9-3.8-2.9c-1.2-1-2.7-1.9-4.3-1.9L214.7,20.5z"/>
		<path class="st0" d="M208.6,19.8c-1.1-0.9-2.7-1.3-3.8-2.2c-2.1-1.8-2.4-5.1-4.6-6.8c-1-0.8-2.3-1.1-3.5-1.4
			c2.8,0,5.5,1.2,7.8,2.8C208.6,15.2,208.6,19.8,208.6,19.8z"/>
		<path class="st0" d="M209.1,16.8c-0.2-2.4-1.6-4.7-3.6-6c-1.7-1.1-3.7-1.6-5.3-2.7c-1.3-0.9-2.3-2.1-2.9-3.6
			c1.7,0.6,3.3,1.3,4.8,2.1c-0.8-1.5-0.9-3.3-0.2-4.9c1,0.9,1.9,1.8,2.9,2.7c0.6,0.6,1.2,1.1,1.7,1.7C208.4,8.8,209,13.6,209.1,16.8
			L209.1,16.8z"/>
		<path class="st0" d="M209.5,19.8c1.1-0.9,2.7-1.3,3.8-2.2c2.1-1.8,2.4-5.1,4.6-6.8c1-0.8,2.3-1.1,3.5-1.4c-2.8,0-5.5,1.2-7.8,2.8
			C209.5,15.2,209.5,19.8,209.5,19.8z"/>
		<path class="st0" d="M209.1,16.8c0.2-2.4,1.6-4.7,3.6-6c1.7-1.1,3.7-1.6,5.3-2.7c1.3-0.9,2.3-2.1,2.9-3.6
			c-1.7,0.6-3.3,1.3-4.9,2.1c0.8-1.5,0.9-3.3,0.2-4.9c-1,0.9-1.9,1.8-2.9,2.7c-0.6,0.6-1.2,1.1-1.7,1.7
			C209.7,8.8,209.1,13.6,209.1,16.8L209.1,16.8z"/>
		<path class="st0" d="M242.3,10.9c0,0-0.2,0-0.5,0c-0.3,0-0.8,0-1.5,0.1c-0.6,0.1-1.4,0.1-2.2,0.3c-0.9,0.1-1.8,0.3-2.9,0.5
			c-1,0.2-2.2,0.5-3.3,0.8c-1.2,0.3-2.4,0.7-3.7,1.2c-0.6,0.2-1.3,0.4-1.9,0.6c-0.6,0.2-1.3,0.5-2,0.7c-1.3,0.5-2.6,1.1-3.9,1.8
			c-1.2,0.7-2.5,1.5-3.6,2.4c-1.1,0.8-2.2,1.7-3.1,2.7c-0.9,1-1.7,1.9-2.5,2.9c-0.8,1-1.5,1.9-2.4,2.6c-0.8,0.8-1.6,1.4-2.4,1.9
			c-0.8,0.5-1.5,0.8-2.1,1c-0.6,0.2-1.1,0.3-1.5,0.4c-0.3,0.1-0.5,0.1-0.5,0.1l0-0.1c0,0,0.2-0.1,0.5-0.3c0.1-0.1,0.3-0.2,0.5-0.3
			c0.2-0.1,0.4-0.3,0.7-0.4c0.3-0.2,0.5-0.4,0.8-0.6c0.3-0.2,0.6-0.5,0.9-0.8c0.6-0.6,1.3-1.2,2-2c0.7-0.8,1.4-1.7,2.3-2.6
			c0.9-0.9,1.8-1.9,2.9-2.7c0.6-0.5,1.1-0.8,1.7-1.2c0.6-0.4,1.2-0.8,1.8-1.2c1.2-0.8,2.5-1.5,3.7-2.2c1.3-0.7,2.5-1.4,3.8-2.2
			c1.3-0.7,2.5-1.3,3.8-1.9c1.3-0.5,2.5-0.9,3.8-1.2c0.6-0.1,1.2-0.3,1.8-0.4c0.6-0.1,1.1-0.2,1.7-0.3c1.1-0.1,2.1-0.2,3-0.2
			c0.9-0.1,1.7,0,2.3,0.1c1.3,0.1,2,0.3,2,0.3L242.3,10.9z"/>
		<path class="st0" d="M175.5,11c0,0,0.7-0.1,2-0.3c0.6,0,1.4-0.1,2.3-0.1c0.9,0,1.9,0.1,3,0.2c0.5,0.1,1.1,0.2,1.7,0.3
			c0.6,0.1,1.2,0.3,1.8,0.4c1.2,0.3,2.5,0.7,3.8,1.2c1.3,0.5,2.5,1.2,3.8,1.9c1.3,0.7,2.5,1.4,3.8,2.2c1.3,0.7,2.5,1.5,3.7,2.2
			c0.6,0.4,1.2,0.8,1.8,1.2c0.6,0.4,1.2,0.7,1.7,1.2c1.1,0.9,2,1.8,2.9,2.7c0.9,0.9,1.6,1.8,2.3,2.6c0.7,0.8,1.4,1.5,2,2
			c0.3,0.3,0.6,0.5,0.9,0.8c0.3,0.2,0.6,0.4,0.8,0.6c0.3,0.1,0.5,0.3,0.7,0.4c0.2,0.1,0.4,0.2,0.5,0.3c0.3,0.2,0.5,0.3,0.5,0.3
			l0,0.1c0,0-0.2,0-0.5-0.1c-0.3-0.1-0.8-0.2-1.5-0.4c-0.6-0.2-1.4-0.5-2.1-1c-0.8-0.5-1.6-1.1-2.4-1.9c-0.8-0.8-1.6-1.7-2.4-2.6
			c-0.8-1-1.6-1.9-2.5-2.9c-0.9-1-2-1.9-3.1-2.7c-1.1-0.9-2.3-1.6-3.6-2.4c-1.2-0.7-2.6-1.3-3.9-1.8c-0.7-0.2-1.3-0.5-2-0.7
			c-0.7-0.2-1.3-0.4-1.9-0.6c-1.3-0.4-2.5-0.8-3.7-1.2c-1.2-0.3-2.3-0.6-3.3-0.8c-1-0.2-2-0.4-2.9-0.5c-0.9-0.2-1.6-0.2-2.2-0.3
			c-0.6-0.1-1.1-0.1-1.5-0.1c-0.3,0-0.5,0-0.5,0L175.5,11z"/>
		<path class="st0" d="M181.3,11.1c-4.9-0.8-10.3,0-15,2.1s-9.1,5-13.8,6.9c-4.8,2-10.3,2.9-15,0.9c9.8,6.4,23.4,6.1,32.9-0.5
			c4.5-3.1,10.2-8.8,15.6-8.1c-0.6-0.3-1.9-0.7-2.5-1C183.5,11.4,181.9,11.2,181.3,11.1z"/>
		<path class="st0" d="M195.6,16.3c-3.8-0.9-8.3-0.5-11.1,2.2c-1.1,1.1-1.9,2.5-3.1,3.5c-1.9,1.4-4.4,1.5-6.7,1.4
			c2.7,0.3,5.5,0.3,8.3,0c1.5-0.2,3.1-0.5,4.5-1.2c1.6-0.8,2.9-2.2,4.4-3.3c1.4-1.2,3.1-2.2,4.9-2.2L195.6,16.3z"/>
		<path class="st0" d="M203,20.5c-3.3-0.8-7.2-0.5-9.6,2c-1,1-1.6,2.2-2.7,3c-1.6,1.2-3.8,1.3-5.8,1.3c2.4,0.3,4.8,0.3,7.2,0
			c1.3-0.2,2.7-0.4,3.9-1.1c1.4-0.7,2.6-1.9,3.8-2.9c1.2-1,2.7-1.9,4.3-1.9L203,20.5z"/>
		<g>
			<path class="st0" d="M209.1,8.6c0,0-2.4-4.4,0-8.6V8.6z"/>
			<path class="st0" d="M209.1,8.6c0,0,2.4-4.4,0-8.6V8.6z"/>
		</g>
	</g>
	<g>
		<polygon class="st0" points="278.7,24.1 414.9,24.1 414.9,22.1 285.2,22.1 		"/>
		<circle class="st0" cx="414.1" cy="22.6" r="3.6"/>
	</g>
	<g>
		<polygon class="st0" points="138.9,24.1 2.8,24.1 2.8,22.1 132.5,22.1 		"/>
		<circle class="st0" cx="3.6" cy="22.6" r="3.6"/>
	</g>
</g>
</svg>
