<?xml version="1.0" encoding="utf-8"?>
<!-- Generator: Adobe Illustrator 19.2.1, SVG Export Plug-In . SVG Version: 6.00 Build 0)  -->
<svg version="1.1" id="Layer_1" xmlns="http://www.w3.org/2000/svg" xmlns:xlink="http://www.w3.org/1999/xlink" x="0px" y="0px"
	 viewBox="0 0 142.1 13" style="enable-background:new 0 0 142.1 13;" xml:space="preserve">
<style type="text/css">
	.st0{fill:#414042;}
</style>
<g>
	<g>
		<path class="st0" d="M62.5,13c5.7-0.8,8.2-4.5,11.1-8.3C77.1,0.1,81.7-0.7,85,2c4.9,4,2.3,10.8-2.9,10.9c-2.3,0-4.2-2.1-3.8-4.4
			c0.5-2.7,3.9-3.3,5-1.1c1.2,2.5-2.5,3.5-2.3,1.4c0.1-1.2,0.9-0.1,1.4-0.2c0.1-0.4-0.4-1.3-1.4-1.4c-2.6-0.2-2.6,4.7,1.1,4.8
			c4.1,0.1,6.6-5.5,3-9c-2.6-2.5-8.4-2.2-9.2,2.9C71.9,5.7,70.3,12.5,62.5,13z"/>
		<path class="st0" d="M79.7,0C74,0.8,71.5,4.5,68.6,8.3c-3.5,4.6-8.2,5.3-11.4,2.7c-4.9-4-2.3-10.8,2.9-10.9c2.3,0,4.2,2.1,3.8,4.4
			c-0.5,2.7-3.9,3.3-5,1.1c-1.2-2.5,2.5-3.5,2.3-1.4c-0.1,1.2-0.9,0.1-1.4,0.2c-0.1,0.4,0.4,1.3,1.4,1.4C63.8,6,63.7,1.1,60,1
			c-4.1-0.1-6.6,5.5-3,9c2.6,2.5,8.4,2.2,9.2-2.9C70.2,7.3,71.8,0.5,79.7,0z"/>
	</g>
	<g>
		<g>
			<ellipse transform="matrix(0.6273 -0.7788 0.7788 0.6273 27.9954 71.4765)" class="st0" cx="88.7" cy="6.5" rx="0.4" ry="0.4"/>
			<path class="st0" d="M91.1,4.9c8.9,1.6,49.2,1.2,51,1.6c-1.8,0.4-42.1,0-51,1.6c-0.2-0.7-0.8-1.3-1.4-1.6
				C90.4,6.2,90.9,5.6,91.1,4.9z"/>
		</g>
		<g>
			<ellipse transform="matrix(0.7779 -0.6284 0.6284 0.7779 7.7957 35.0398)" class="st0" cx="53.5" cy="6.5" rx="0.4" ry="0.4"/>
			<path class="st0" d="M51,4.9C42.1,6.5,1.8,6.1,0,6.5c1.8,0.4,42.1,0,51,1.6c0.2-0.7,0.8-1.3,1.4-1.6C51.8,6.2,51.2,5.6,51,4.9z"
				/>
		</g>
	</g>
</g>
</svg>
