<?xml version="1.0" encoding="utf-8"?>
<!-- Generator: Adobe Illustrator 19.2.1, SVG Export Plug-In . SVG Version: 6.00 Build 0)  -->
<svg version="1.1" id="Layer_1" xmlns="http://www.w3.org/2000/svg" xmlns:xlink="http://www.w3.org/1999/xlink" x="0px" y="0px"
	 viewBox="0 0 87.5 13" style="enable-background:new 0 0 87.5 13;" xml:space="preserve">
<style type="text/css">
	.st0{fill:#414042;}
</style>
<g>
	<g>
		<path class="st0" d="M7.9,13c5.7-0.8,8.2-4.5,11.1-8.3c3.5-4.6,8.1-5.4,11.4-2.7c4.9,4,2.3,10.8-2.9,10.9c-2.3,0-4.2-2.1-3.8-4.4
			c0.5-2.7,3.9-3.3,5-1.1c1.2,2.5-2.5,3.5-2.3,1.4c0.1-1.2,0.9-0.1,1.4-0.2c0.1-0.4-0.4-1.3-1.4-1.4c-2.6-0.2-2.6,4.7,1.1,4.8
			c4.1,0.1,6.6-5.5,3-9c-2.6-2.5-8.4-2.2-9.2,2.9C17.3,5.7,15.7,12.5,7.9,13z"/>
		<path class="st0" d="M25.1,0C19.4,0.8,16.9,4.5,14,8.3c-3.5,4.6-8.2,5.3-11.4,2.7C-2.3,7,0.3,0.2,5.5,0.1c2.3,0,4.2,2.1,3.8,4.4
			c-0.5,2.7-3.9,3.3-5,1.1C3.1,3.1,6.8,2.1,6.6,4.2C6.5,5.4,5.7,4.3,5.2,4.4C5.1,4.8,5.6,5.7,6.6,5.8C9.2,6,9.1,1.1,5.4,1
			c-4.1-0.1-6.6,5.5-3,9c2.6,2.5,8.4,2.2,9.2-2.9C15.6,7.3,17.2,0.5,25.1,0z"/>
	</g>
	<g>
		<ellipse transform="matrix(0.6273 -0.7788 0.7788 0.6273 7.6696 28.9745)" class="st0" cx="34.1" cy="6.5" rx="0.4" ry="0.4"/>
		<path class="st0" d="M36.5,4.9c8.9,1.6,49.2,1.2,51,1.6c-1.8,0.4-42.1,0-51,1.6c-0.2-0.7-0.8-1.3-1.4-1.6
			C35.8,6.2,36.3,5.6,36.5,4.9z"/>
	</g>
</g>
</svg>
