<?xml version="1.0" encoding="utf-8"?>
<!-- Generator: Adobe Illustrator 19.2.1, SVG Export Plug-In . SVG Version: 6.00 Build 0)  -->
<svg version="1.1" id="Layer_1" xmlns="http://www.w3.org/2000/svg" xmlns:xlink="http://www.w3.org/1999/xlink" x="0px" y="0px"
	 viewBox="0 0 87.5 13" style="enable-background:new 0 0 87.5 13;" xml:space="preserve">
<style type="text/css">
	.st0{fill:#414042;}
</style>
<g>
	<g>
		<path class="st0" d="M66.2,5.9C65.4,0.8,59.6,0.5,57,3c-3.6,3.5-1.1,9.1,3,9c3.7-0.1,3.7-5,1.1-4.8c-1,0.1-1.5,1-1.4,1.4
			c0.5,0.1,1.3-1,1.4,0.2c0.2,2.1-3.5,1.1-2.3-1.4c1.1-2.2,4.5-1.6,5,1.1c0.4,2.3-1.5,4.4-3.8,4.4C54.8,12.8,52.2,6,57.1,2
			c3.3-2.7,7.9-1.9,11.4,2.7c2.9,3.8,5.4,7.5,11.1,8.3C71.8,12.5,70.2,5.7,66.2,5.9z"/>
		<path class="st0" d="M75.9,7.1c0.8,5.1,6.6,5.4,9.2,2.9c3.6-3.5,1.1-9.1-3-9c-3.7,0.1-3.8,5-1.2,4.8c1-0.1,1.5-1,1.4-1.4
			c-0.5-0.1-1.3,1-1.4-0.2c-0.2-2.1,3.5-1.1,2.3,1.4c-1.1,2.2-4.5,1.6-5-1.1c-0.4-2.3,1.5-4.4,3.8-4.4C87.2,0.2,89.8,7,84.9,11
			c-3.2,2.6-7.9,1.9-11.4-2.7C70.6,4.5,68.1,0.8,62.4,0C70.3,0.5,71.9,7.3,75.9,7.1z"/>
	</g>
	<g>
		<ellipse transform="matrix(0.7788 -0.6273 0.6273 0.7788 7.7517 34.93)" class="st0" cx="53.4" cy="6.5" rx="0.4" ry="0.4"/>
		<path class="st0" d="M52.4,6.5c-0.6,0.3-1.2,0.9-1.4,1.6C42.1,6.5,1.8,6.9,0,6.5c1.8-0.4,42.1,0,51-1.6
			C51.2,5.6,51.7,6.2,52.4,6.5z"/>
	</g>
</g>
</svg>
