<?xml version="1.0" encoding="utf-8"?>
<!-- Generator: Adobe Illustrator 19.2.1, SVG Export Plug-In . SVG Version: 6.00 Build 0)  -->
<svg version="1.1" id="Layer_1" xmlns="http://www.w3.org/2000/svg" xmlns:xlink="http://www.w3.org/1999/xlink" x="0px" y="0px"
	 viewBox="0 0 66.1 40.1" style="enable-background:new 0 0 66.1 40.1;" xml:space="preserve">
<g>
	<g>
		<g>
			<ellipse transform="matrix(0.707 -0.7072 0.7072 0.707 11.927 33.2535)" cx="46.1" cy="2.2" rx="2.2" ry="2.2"/>
			<ellipse transform="matrix(0.7072 -0.707 0.707 0.7072 9.4585 39.1819)" cx="52" cy="8.2" rx="2.2" ry="2.2"/>
			<ellipse transform="matrix(0.7072 -0.7071 0.7071 0.7072 7.0013 45.1246)" cx="58" cy="14.1" rx="2.2" ry="2.2"/>
			<ellipse transform="matrix(0.7071 -0.7072 0.7072 0.7071 4.5455 51.0716)" cx="63.9" cy="20" rx="2.2" ry="2.2"/>
		</g>
		<g>
			<ellipse transform="matrix(0.7072 -0.7071 0.7071 0.7072 -13.2747 43.683)" cx="46.1" cy="37.9" rx="2.2" ry="2.2"/>
			<ellipse transform="matrix(0.707 -0.7072 0.7072 0.707 -7.3329 46.1571)" cx="52" cy="31.9" rx="2.2" ry="2.2"/>
			<ellipse transform="matrix(0.7071 -0.7072 0.7072 0.7071 -1.3941 48.6126)" cx="58" cy="26" rx="2.2" ry="2.2"/>
			<ellipse transform="matrix(0.7072 -0.7071 0.7071 0.7072 4.5415 51.0639)" cx="63.9" cy="20" rx="2.2" ry="2.2"/>
		</g>
	</g>
	<g>
		<circle cx="27.4" cy="20" r="2.2"/>
		<circle cx="35.8" cy="20" r="2.2"/>
		<circle cx="44.2" cy="20" r="2.2"/>
		<circle cx="52.6" cy="20" r="2.2"/>
	</g>
	<g>
		<circle cx="2.2" cy="20" r="2.2"/>
		<circle cx="10.6" cy="20" r="2.2"/>
		<circle cx="19" cy="20" r="2.2"/>
	</g>
</g>
</svg>
