<?xml version="1.0" standalone="no"?>
<!DOCTYPE svg PUBLIC "-//W3C//DTD SVG 1.1//EN" "http://www.w3.org/Graphics/SVG/1.1/DTD/svg11.dtd" >
<svg xmlns="http://www.w3.org/2000/svg">
<metadata>Generated by IcoMoon</metadata>
<defs>
<font id="icomoon" horiz-adv-x="1024">
<font-face units-per-em="1024" ascent="960" descent="-64" />
<missing-glyph horiz-adv-x="1024" />
<glyph unicode="&#x20;" horiz-adv-x="512" d="" />
<glyph unicode="&#xe900;" glyph-name="album" d="M256 857.6h512v-51.2h-512v51.2zM153.6 755.2h716.8v-51.2h-716.8v51.2zM972.8 38.4h-921.6v614.4h921.6v-614.4zM102.4 89.6h819.2v512h-819.2v-512z" />
<glyph unicode="&#xe901;" glyph-name="arrow-down" d="M537.6 136.704l-249.344 277.504 37.888 33.792 211.456-234.496 211.456 234.496 37.888-33.792zM512 755.2h51.2v-563.2h-51.2v563.2z" />
<glyph unicode="&#xe902;" glyph-name="arrow-left" d="M494.899 224.154l-277.197 249.446 277.197 249.446 34.202-38.093-234.803-211.354 234.803-211.354zM256 498.688h563.2v-51.2h-563.2v51.2z" />
<glyph unicode="&#xe903;" glyph-name="arrow-right" d="M529.101 224.154l-34.202 38.093 234.854 211.354-234.854 211.354 34.202 38.093 277.146-249.446zM204.8 499.2h563.2v-51.2h-563.2v51.2z" />
<glyph unicode="&#xe904;" glyph-name="arrow-up" d="M537.6 755.2l249.344-276.48-37.888-34.816-211.456 235.008-211.456-235.008-37.888 34.816zM512 704h51.2v-563.2h-51.2v563.2z" />
<glyph unicode="&#xe905;" glyph-name="ban" d="M512-40.96c-269.619 0-488.96 219.341-488.96 488.96s219.341 488.96 488.96 488.96c269.619 0 488.96-219.341 488.96-488.96s-219.341-488.96-488.96-488.96zM512 880.64c-238.541 0-432.64-194.099-432.64-432.64s194.099-432.64 432.64-432.64 432.64 194.099 432.64 432.64-194.099 432.64-432.64 432.64zM225.49 799.893l614.425-665.604-41.384-38.202-614.425 665.604 41.384 38.202z" />
<glyph unicode="&#xe906;" glyph-name="behance" d="M486.4 417.28c-20.48 25.6-46.080 46.080-81.92 56.32 87.040 51.2 112.64 163.84 35.84 240.64-40.96 40.96-117.76 40.96-174.080 40.96-87.040 0-179.2 0-266.24 0v-614.4c87.040 0 174.080 0 266.24 0 51.2 0 107.52 0 158.72 25.6 97.28 46.080 112.64 163.84 61.44 250.88v0zM286.72 647.68c92.16 0 92.16-138.24-5.12-138.24-51.2 0-102.4 0-148.48 0v138.24h153.6zM133.12 253.44v158.72c56.32 0 107.52 0 163.84 0 107.52 0 107.52-163.84 5.12-163.84l-168.96 5.12zM1018.88 401.92c-10.24 87.040-61.44 168.96-148.48 199.68-215.040 66.56-373.76-174.080-271.36-363.52 46.080-87.040 143.36-117.76 240.64-107.52 87.040 10.24 148.48 66.56 174.080 148.48h-112.64c-20.48-66.56-122.88-76.8-179.2-30.72-20.48 20.48-30.72 56.32-30.72 87.040h332.8c0 25.6-5.12 66.56-5.12 66.56zM691.2 417.28c0 81.92 117.76 138.24 179.2 71.68 20.48-20.48 25.6-46.080 30.72-71.68h-209.92zM665.6 755.2h256v-71.68h-256v71.68z" />
<glyph unicode="&#xe907;" glyph-name="bell" d="M898.253 138.24h-772.506l-0.307 27.853c-0.41 38.042 20.634 82.125 39.219 121.037 7.322 15.36 14.234 29.747 18.893 42.189 23.194 58.47 29.85 101.734 54.323 275.661 16.998 120.678 34.406 204.442 117.965 266.957 50.432 35.635 119.194 39.424 146.432 39.424h7.373c0.256 0.051 3.635 0.154 8.858 0.154 27.597 0 97.075-3.891 146.739-39.782 84.275-61.542 101.734-145.766 118.886-267.213 25.139-170.803 31.846-216.474 54.682-275.302 4.557-11.315 11.213-24.678 18.227-39.014 19.661-39.834 41.933-84.992 41.523-124.109l-0.307-27.853zM186.675 194.56h650.598c-6.912 22.426-19.712 48.435-30.72 70.758-7.731 15.718-15.002 30.464-20.122 43.213-25.293 65.075-32.87 116.48-57.958 286.874-18.637 132.25-35.942 186.624-96.41 230.758-37.274 26.931-96.41 29.030-113.613 29.030l-16.179-0.154c-17.050 0-75.674-2.099-113.306-28.672-59.699-44.646-76.954-98.918-95.386-229.171-23.296-165.786-31.13-221.696-57.498-288.051-4.915-13.21-12.544-29.235-20.634-46.182-10.24-21.606-22.221-46.694-28.774-68.403zM507.392-9.216c-87.296 0-153.088 64.512-153.088 150.016h51.2c0-56.371 43.776-98.816 101.888-98.816 58.726 0 101.325 41.574 101.325 98.816h51.2c0.051-85.504-65.587-150.016-152.525-150.016z" />
<glyph unicode="&#xe908;" glyph-name="bold" d="M256 176.64c33.792 0 46.080 15.36 46.080 39.424v462.336c0 29.696-17.408 40.96-46.080 40.96v35.84h202.24c186.88 0 243.2-70.144 243.2-148.48 0-49.664-28.672-116.224-145.408-137.728v-5.632c122.368-8.192 175.616-80.896 176.128-145.408 0-98.816-69.632-177.152-271.36-177.152h-204.8v35.84zM460.8 483.84c112.128 0 143.36 40.96 145.92 117.76 0 69.12-28.16 112.64-145.92 112.64h-68.096v-230.4h68.096zM470.272 180.736c142.592 11.264 164.096 62.464 164.608 135.168 0 73.216-51.712 132.096-174.080 132.096h-68.096v-256h77.312z" />
<glyph unicode="&#xe909;" glyph-name="bolt" d="M242.688-64l153.088 409.6h-242.176l636.416 563.2-159.232-409.6h240.64l-628.736-563.2zM470.016 396.8l-106.496-275.968 377.344 327.168h-184.832l109.056 272.896-377.856-324.096h182.784z" />
<glyph unicode="&#xe90a;" glyph-name="bookmark" d="M819.2 2.202l-281.6 281.6-281.6-281.6v906.598h563.2v-906.598zM537.6 356.198l230.4-230.4v731.802h-460.8v-731.802l230.4 230.4z" />
<glyph unicode="&#xe90b;" glyph-name="calendar" d="M102.4 806.4v-716.8h819.2v716.8h-819.2zM870.4 140.8h-716.8v409.6h716.8v-409.6zM870.4 601.6h-716.8v153.6h716.8v-153.6zM307.2 857.6h51.2v-153.6h-51.2v153.6zM665.6 857.6h51.2v-153.6h-51.2v153.6z" />
<glyph unicode="&#xe90c;" glyph-name="camera" d="M512 184.371c-122.778 0-222.72 99.891-222.72 222.72s99.942 222.669 222.72 222.669 222.72-99.891 222.72-222.72-99.942-222.669-222.72-222.669zM512 573.44c-91.75 0-166.4-74.65-166.4-166.4s74.65-166.4 166.4-166.4 166.4 74.65 166.4 166.4-74.65 166.4-166.4 166.4zM972.8 38.4h-921.6c-29.696 0-51.2 21.555-51.2 51.2v614.4c0 29.696 21.504 51.2 51.2 51.2h256v56.32c0 22.272 13.466 46.080 51.2 46.080h307.2c37.734 0 51.2-23.808 51.2-46.080v-56.32h256c29.645 0 51.2-21.504 51.2-51.2v-614.4c0-29.645-21.555-51.2-51.2-51.2zM51.2 704v-614.4h921.6c0.922 0 1.28 0.154 1.28 0.154l-1.28 614.246h-307.2v101.939l-307.2 0.461v-102.4h-307.2z" />
<glyph unicode="&#xe90d;" glyph-name="cart" d="M445.44 74.24c0-39.588-32.092-71.68-71.68-71.68s-71.68 32.092-71.68 71.68c0 39.588 32.092 71.68 71.68 71.68s71.68-32.092 71.68-71.68zM752.64 74.24c0-39.588-32.092-71.68-71.68-71.68s-71.68 32.092-71.68 71.68c0 39.588 32.092 71.68 71.68 71.68s71.68-32.092 71.68-71.68zM837.632 294.4h-586.342l-109.824 444.621-155.034 96.87 27.136 43.418 172.646-107.93 105.165-425.779h509.389l85.35 256h-476.518v51.2h547.482z" />
<glyph unicode="&#xe90e;" glyph-name="check" d="M409.344 147.251l-226.56 283.136 44.032 35.226 183.040-228.864 438.733 536.269 43.622-35.635z" />
<glyph unicode="&#xe90f;" glyph-name="chevron-down" d="M512 257.075l-325.837 325.888 37.274 37.274 288.563-288.512 288.563 288.512 37.274-37.274z" />
<glyph unicode="&#xe910;" glyph-name="chevron-left" d="M646.963 122.163l-325.888 325.837 325.888 325.837 37.274-37.274-288.512-288.563 288.512-288.563z" />
<glyph unicode="&#xe911;" glyph-name="chevron-right" d="M377.037 122.163l-37.274 37.274 288.512 288.563-288.512 288.563 37.274 37.274 325.888-325.837z" />
<glyph unicode="&#xe912;" glyph-name="chevron-up" d="M800.563 275.763l-288.563 288.512-288.563-288.512-37.274 37.274 325.837 325.888 325.837-325.888z" />
<glyph unicode="&#xe913;" glyph-name="clock" d="M512-40.96c-269.619 0-488.96 219.341-488.96 488.96s219.341 488.96 488.96 488.96c269.619 0 488.96-219.341 488.96-488.96s-219.341-488.96-488.96-488.96zM512 880.64c-238.541 0-432.64-194.099-432.64-432.64s194.099-432.64 432.64-432.64 432.64 194.099 432.64 432.64-194.099 432.64-432.64 432.64zM460.8 755.2h51.2v-358.4h-51.2v358.4zM503.473 435.881l182.926-182.9-39.824-39.83-182.926 182.9 39.824 39.83z" />
<glyph unicode="&#xe914;" glyph-name="close" d="M224.001 774.38l614.41-614.41-38.412-38.412-614.41 614.41 38.412 38.412zM799.999 774.38l38.412-38.412-614.41-614.41-38.412 38.412 614.41 614.41z" />
<glyph unicode="&#xe915;" glyph-name="cloud-download" d="M332.8 183.808h-140.8c-107.264 0-194.56 86.579-194.56 193.075 0 88.422 60.826 164.966 144.794 186.726 15.565 153.651 144.179 270.95 302.182 270.95 128.973 0 242.022-79.77 284.928-197.478 20.838 6.042 42.342 9.062 64.256 9.062 128.461 0 232.96-103.578 232.96-230.861s-104.499-230.912-232.96-230.912h-153.6v56.32h153.6c97.382 0 176.64 78.336 176.64 174.592s-79.258 174.592-176.64 174.592c-24.525 0-48.486-5.069-71.117-15.002l-30.566-13.466-8.090 32.358c-27.29 108.595-125.747 184.474-239.411 184.474-134.963 0-243.61-104.909-247.347-238.899l-0.666-23.962-23.757-3.174c-67.789-8.96-118.886-67.174-118.886-135.373 0-75.418 62.003-136.755 138.24-136.755h140.8v-56.269zM486.4-10.598l-133.325 133.274 36.25 36.25 97.075-97.126 97.075 97.126 36.25-36.25zM460.8 473.6h51.2v-435.2h-51.2v435.2z" />
<glyph unicode="&#xe916;" glyph-name="cloud-upload" d="M332.8 183.808h-140.8c-107.264 0-194.56 86.579-194.56 193.075 0 88.474 60.979 164.966 145.254 186.726 15.053 153.651 143.462 270.95 301.722 270.95 128.973 0 242.022-79.77 284.928-197.478 20.838 6.042 42.342 9.062 64.256 9.062 128.461 0 232.96-103.578 232.96-230.861s-104.499-230.912-232.96-230.912h-153.6v56.32h153.6c97.382 0 176.64 78.336 176.64 174.592s-79.258 174.592-176.64 174.592c-24.525 0-48.486-5.069-71.117-15.002l-30.566-13.466-8.090 32.358c-27.29 108.595-125.747 184.474-239.411 184.474-135.168 0-243.558-104.909-246.784-238.797l-0.563-24.064-23.91-3.174c-68.045-8.96-119.398-67.174-119.398-135.373 0-75.418 62.003-136.755 138.24-136.755h140.8v-56.269zM583.475 340.275l-97.075 97.126-97.075-97.126-36.25 36.25 133.325 133.274 133.325-133.274zM460.8 473.6h51.2v-435.2h-51.2v435.2z" />
<glyph unicode="&#xe917;" glyph-name="code" d="M683.878 122.522l-36.557 36.557 288.922 288.922-288.922 288.922 36.557 36.557 325.478-325.478zM340.122 122.522l-325.478 325.478 325.478 325.478 36.557-36.557-288.922-288.922 288.922-288.922z" />
<glyph unicode="&#xe918;" glyph-name="cog" d="M511.846 252.928c-107.571 0-195.072 87.501-195.072 195.072s87.501 195.072 195.072 195.072c107.571 0 195.072-87.501 195.072-195.072s-87.501-195.072-195.072-195.072zM511.846 591.872c-79.309 0-143.872-64.563-143.872-143.872s64.563-143.872 143.872-143.872c79.309 0 143.872 64.563 143.872 143.872s-64.563 143.872-143.872 143.872zM657.51-12.8h-292.096l5.427 30.157c8.704 48.23-7.578 92.211-41.523 112.026-34.202 20.173-81.971 11.52-119.603-20.275l-23.45-19.814-146.534 254.874 27.853 10.752c46.592 17.971 76.646 54.63 76.646 93.542-0.461 39.322-29.747 74.906-76.493 92.518l-28.16 10.65 146.176 253.747 23.398-19.456c37.734-31.386 86.067-39.834 120.576-20.326 33.587 19.712 49.869 64.205 41.062 113.050l-5.376 30.157h292.659l-5.018-29.85c-8.346-49.818 7.526-93.082 41.523-112.947 33.741-19.251 81.971-11.469 119.91 19.507l23.296 19.098 146.074-253.030-28.365-10.598c-47.514-17.664-76.749-53.402-76.39-93.286 0.102-39.526 29.389-75.008 76.544-92.826l28.211-10.65-147.251-254.874-23.347 19.61c-37.53 31.488-85.248 39.885-119.347 20.275-33.997-19.354-50.278-63.334-41.677-112.077l5.274-29.952zM424.294 38.4h174.49c-1.331 58.368 24.371 109.619 69.632 135.373 44.544 25.702 103.475 22.426 153.19-7.834l88.73 153.651c-51.456 28.416-82.381 75.52-82.483 127.949-0.461 52.224 31.13 100.506 82.432 129.024l-87.859 152.269c-49.92-29.645-108.595-32.768-153.498-7.066-45.363 26.522-70.502 77.005-69.171 135.834h-175.411c1.434-58.317-24.013-109.926-69.018-136.346-45.875-26.010-104.653-22.17-154.419 7.834l-87.962-152.678c50.944-28.262 81.869-75.213 82.483-127.642 0-51.968-31.642-100.147-82.637-129.024l88.422-153.754c49.971 30.669 109.158 33.946 154.010 7.526 44.902-26.214 70.4-77.363 69.069-135.117z" />
<glyph unicode="&#xe919;" glyph-name="comment" d="M307.2 2.048v241.152h-256v665.6h921.6v-665.6h-424.448l-241.152-241.152zM102.4 294.4h256v-168.448l168.448 168.448h394.752v563.2h-819.2v-563.2z" />
<glyph unicode="&#xe91a;" glyph-name="commenting" d="M307.2 2.202v240.998h-256v665.6h921.6v-665.6h-424.602l-240.998-240.998zM102.4 294.4h256v-168.602l168.602 168.602h394.598v563.2h-819.2v-563.2zM563.2 550.4c0-28.277-22.923-51.2-51.2-51.2s-51.2 22.923-51.2 51.2c0 28.277 22.923 51.2 51.2 51.2s51.2-22.923 51.2-51.2zM358.4 550.4c0-28.277-22.923-51.2-51.2-51.2s-51.2 22.923-51.2 51.2c0 28.277 22.923 51.2 51.2 51.2s51.2-22.923 51.2-51.2zM768 550.4c0-28.277-22.923-51.2-51.2-51.2s-51.2 22.923-51.2 51.2c0 28.277 22.923 51.2 51.2 51.2s51.2-22.923 51.2-51.2z" />
<glyph unicode="&#xe91b;" glyph-name="comments" d="M1024 294.4h-51.2v614.4h-870.4v51.2h921.6zM256-49.152v241.152h-256v665.6h921.6v-665.6h-424.448l-241.152-241.152zM51.2 243.2h256v-168.448l168.448 168.448h394.752v563.2h-819.2v-563.2z" />
<glyph unicode="&#xe91c;" glyph-name="copy" d="M819.2-12.8h-665.6v870.4h665.6v-870.4zM204.8 38.4h563.2v768h-563.2v-768zM921.6 89.6h-51.2v819.2h-614.4v51.2h665.6z" />
<glyph unicode="&#xe91d;" glyph-name="credit-card" d="M972.8 89.6h-921.6v665.6h921.6v-665.6zM102.4 140.8h819.2v563.2h-819.2v-563.2zM51.2 601.6h921.6v-153.6h-921.6v153.6z" />
<glyph unicode="&#xe91e;" glyph-name="database" d="M512 536.064c-233.523 0-409.6 80.128-409.6 186.368s176.077 186.368 409.6 186.368 409.6-80.128 409.6-186.368c0-106.24-176.077-186.368-409.6-186.368zM512 857.6c-211.2 0-358.4-71.27-358.4-135.168s147.2-135.168 358.4-135.168 358.4 71.219 358.4 135.168-147.2 135.168-358.4 135.168zM512 358.4c-233.523 0-409.6 80.128-409.6 186.368h51.2c0-63.949 147.2-135.168 358.4-135.168s358.4 71.27 358.4 135.168h51.2c0-106.24-176.077-186.368-409.6-186.368zM512 197.632c-233.523 0-409.6 80.077-409.6 186.368h51.2c0-63.898 147.2-135.168 358.4-135.168s358.4 71.27 358.4 135.168h51.2c0-106.24-176.077-186.368-409.6-186.368zM512 38.4c-233.523 0-409.6 80.077-409.6 186.368v497.664h51.2v-497.664c0-63.898 147.2-135.168 358.4-135.168s358.4 71.27 358.4 135.168l-0.512 497.664 51.2 0.051 0.512-497.664c0-106.342-176.077-186.419-409.6-186.419z" />
<glyph unicode="&#xe91f;" glyph-name="desktop" d="M409.6 192h51.2v-102.4h-51.2v102.4zM563.2 192h51.2v-102.4h-51.2v102.4zM256 140.8h512v-51.2h-512v51.2zM972.8 192h-921.6v614.4h921.6v-614.4zM102.4 243.2h819.2v512h-819.2v-512z" />
<glyph unicode="&#xe920;" glyph-name="download" d="M486.4 181.402l-248.525 248.474 36.25 36.25 212.275-212.326 212.275 212.326 36.25-36.25zM153.6 89.6h665.6v-51.2h-665.6v51.2zM460.8 806.4h51.2v-558.592h-51.2v558.592z" />
<glyph unicode="&#xe921;" glyph-name="dribbble" d="M85.606 468.326c-11.264 0-18.176 0.102-19.763 0.154l1.382 71.68c2.611 0 252.621-4.301 429.158 49.664 77.619 22.17 133.786 48.845 194.458 92.16 65.946 51.866 120.166 120.32 120.678 120.986l56.371-44.339c-2.458-3.072-59.904-75.725-134.042-134.042-69.171-49.459-131.686-79.155-217.139-103.526-159.232-48.64-366.49-52.736-431.104-52.736zM230.298 91.494l-61.235 37.222c3.686 6.093 91.597 149.862 187.802 224.717 86.835 62.771 202.24 107.315 309.606 119.962 153.344 10.701 306.842-19.61 313.293-20.89l-13.978-70.298c-1.485 0.307-150.886 29.542-292.659 19.866-94.106-11.11-196.915-50.739-273.254-105.933-84.941-66.15-168.704-203.315-169.574-204.646zM676.147 33.946c-0.154 1.178-15.462 121.242-44.902 219.443-29.491 103.322-73.984 213.248-95.693 261.939-44.39 108.544-209.715 339.507-211.405 341.862l58.266 41.779c7.014-9.779 171.93-240.282 219.034-355.482 22.067-49.459 68.147-163.226 98.611-269.926 31.078-103.629 46.541-225.536 47.206-230.707l-71.117-8.909zM512-48.64c-273.869 0-496.64 222.822-496.64 496.64s222.771 496.64 496.64 496.64 496.64-222.822 496.64-496.64-222.771-496.64-496.64-496.64zM512 872.96c-234.342 0-424.96-190.618-424.96-424.96 0-234.291 190.618-424.96 424.96-424.96 234.291 0 424.96 190.669 424.96 424.96 0 234.342-190.669 424.96-424.96 424.96z" />
<glyph unicode="&#xe922;" glyph-name="expand" d="M665.6 857.6h256v-256h-51.2v204.8h-204.8zM102.4 294.4h51.2v-204.8h204.8v-51.2h-256zM850.494 826.329l39.788-39.788-307.187-307.187-39.788 39.788 307.187 307.187zM440.905 416.729l39.788-39.788-307.187-307.187-39.788 39.788 307.187 307.187z" />
<glyph unicode="&#xe923;" glyph-name="facebook" d="M563.2 448h133.12l20.48 153.6h-153.6v87.040c0 46.080 10.24 76.8 76.8 76.8h76.8v138.24c-15.36 0-51.2 5.12-107.52 5.12-117.76 0-199.68-71.68-199.68-204.8v-102.4h-128v-153.6h128v-409.6h153.6v409.6z" />
<glyph unicode="&#xe924;" glyph-name="file" d="M870.4-12.8h-716.8v921.6h716.8v-921.6zM204.8 38.4h614.4v819.2h-614.4v-819.2z" />
<glyph unicode="&#xe925;" glyph-name="file-edit" d="M367.206 286.208l71.373 192.154 412.723 413.696c32.205 32.461 87.245 33.024 121.293 0.41 34.355-34.355 34.406-87.552 0.461-121.549l-424.192-419.226-181.658-65.485zM478.874 446.259l-26.88-75.059 74.086 26.726 410.778 409.19c14.029 14.080 14.029 34.611-0.102 48.742-13.978 13.261-35.686 13.568-49.254 0.051l-408.627-409.651zM870.4-12.8h-716.8v921.6h574.003v-51.2h-522.803v-819.2h614.4v487.322h51.2z" />
<glyph unicode="&#xe926;" glyph-name="flickr" d="M460.8 473.6c0-98.969-80.231-179.2-179.2-179.2s-179.2 80.231-179.2 179.2c0 98.969 80.231 179.2 179.2 179.2s179.2-80.231 179.2-179.2zM921.6 473.6c0-98.969-80.231-179.2-179.2-179.2s-179.2 80.231-179.2 179.2c0 98.969 80.231 179.2 179.2 179.2s179.2-80.231 179.2-179.2z" />
<glyph unicode="&#xe927;" glyph-name="folder" d="M972.8 89.6h-921.6v716.8h399.821l51.2-102.4h470.579v-614.4zM102.4 140.8h819.2v512h-451.021l-51.2 102.4h-316.979v-614.4z" />
<glyph unicode="&#xe928;" glyph-name="forward" d="M126.464 288.768c79.36 158.208 194.56 269.312 336.384 332.8 22.528 10.24 62.976 24.576 100.352 35.84v200.192l403.968-358.4-403.968-358.4v198.144c-89.6-17.408-175.104-54.272-254.976-108.544-153.088-103.936-224.768-219.648-224.768-219.648s-12.8 166.912 43.008 278.016v0zM271.36 267.264c82.944 57.856 191.488 109.056 343.040 133.632v-138.752l274.432 237.056-274.432 243.2v-130.56c-14.848-3.072-58.368-11.264-119.296-35.328-147.456-59.392-260.608-177.664-316.416-286.208-15.872-31.744-41.472-91.648-51.2-149.504 40.448 48.64 97.792 94.72 143.872 126.464v0z" />
<glyph unicode="&#xe929;" glyph-name="foursquare" d="M779.776 857.6c37.376 0 59.904-20.992 65.024-44.032 3.584-14.848 3.072-29.696 0.512-44.544-2.56-15.872-84.48-409.088-90.112-424.96-9.728-27.136-30.208-40.448-58.368-40.96-29.696-0.512-129.024 16.384-149.504-8.704-15.872-19.456-148.48-173.568-198.656-231.936-10.24-11.776-20.992-22.016-37.376-23.552-20.48-2.56-40.448 6.144-46.592 27.648-2.56 8.704-3.584 18.432-3.584 27.648 0 230.912-12.288 465.92 0.512 696.32 3.072 41.472 35.84 60.928 72.704 67.072h445.44zM499.712 375.296c9.216 11.776 20.992 16.384 35.328 16.384h123.392c13.312 0 23.040 8.192 25.6 20.992 0.512 2.56 13.312 65.536 19.456 95.232 3.584 15.872-10.752 28.16-24.064 28.16-47.104-0.512-94.72 0-141.824 0-33.792 0-34.304 30.208-34.816 54.784-1.024 18.432 15.872 33.792 34.816 33.792 55.808-0.512 111.104 0 166.912 0 13.824 0 24.064 7.68 26.624 20.992 3.072 13.824 19.968 94.72 19.968 94.72s7.68 28.16-24.576 28.16h-350.72c-17.408-0.512-25.6-14.336-25.6-30.208 0-166.4 0.512-543.744 0.512-545.792 1.024-0.512 104.448 126.976 148.992 182.784v0z" />
<glyph unicode="&#xe92a;" glyph-name="future" d="M972.8 857.6h-51.2v-204.8h-204.8v-51.2h256v256zM491.52-40.96c-269.619 0-488.96 219.341-488.96 488.96s219.341 488.96 488.96 488.96c201.37 0 384.717-121.293 456.294-301.824l-52.429-20.736c-63.078 159.232-225.382 266.24-403.866 266.24-238.541 0-432.64-194.099-432.64-432.64s194.099-432.64 432.64-432.64c238.541 0 432.64 194.099 432.64 432.64h56.32c-0.051-269.619-219.392-488.96-488.96-488.96zM460.8 755.2h51.2v-358.4h-51.2v358.4zM503.473 435.881l182.926-182.9-39.824-39.83-182.926 182.9 39.824 39.83z" />
<glyph unicode="&#xe92b;" glyph-name="git-branch" d="M358.4 673.28c-73.421 0-133.12 59.699-133.12 133.12s59.699 133.12 133.12 133.12 133.12-59.699 133.12-133.12-59.699-133.12-133.12-133.12zM358.4 878.080c-39.526 0-71.68-32.154-71.68-71.68s32.154-71.68 71.68-71.68 71.68 32.154 71.68 71.68-32.154 71.68-71.68 71.68zM716.8 519.68c-73.421 0-133.12 59.75-133.12 133.12s59.699 133.12 133.12 133.12 133.12-59.75 133.12-133.12-59.699-133.12-133.12-133.12zM716.8 724.48c-39.475 0-71.68-32.154-71.68-71.68s32.205-71.68 71.68-71.68 71.68 32.154 71.68 71.68-32.205 71.68-71.68 71.68zM358.4-43.52c-73.421 0-133.12 59.699-133.12 133.12s59.75 133.12 133.12 133.12 133.12-59.699 133.12-133.12-59.699-133.12-133.12-133.12zM358.4 161.28c-39.526 0-71.68-32.205-71.68-71.68s32.154-71.68 71.68-71.68 71.68 32.205 71.68 71.68-32.154 71.68-71.68 71.68zM409.6 192h-102.4v512h102.4v-311.194c43.674 26.163 91.341 35.533 121.139 41.421 102.758 20.89 134.861 39.629 134.861 116.173h102.4c0-172.442-135.936-200.090-217.139-216.576-80.179-15.821-141.261-36.25-141.261-141.824z" />
<glyph unicode="&#xe92c;" glyph-name="git-fork" d="M296.448 694.784c-67.482 0-122.368 54.886-122.368 122.368s54.886 122.368 122.368 122.368 122.368-54.886 122.368-122.368-54.886-122.368-122.368-122.368zM296.448 878.080c-33.587 0-60.928-27.341-60.928-60.928s27.341-60.928 60.928-60.928 60.928 27.341 60.928 60.928-27.341 60.928-60.928 60.928zM726.528 694.784c-67.43 0-122.368 54.886-122.368 122.368s54.886 122.368 122.368 122.368 122.368-54.886 122.368-122.368-54.886-122.368-122.368-122.368zM726.528 878.080c-33.587 0-60.928-27.341-60.928-60.928s27.341-60.928 60.928-60.928 60.928 27.341 60.928 60.928-27.29 60.928-60.928 60.928zM513.536-22.016c-67.43 0-122.368 54.886-122.368 122.368s54.886 122.368 122.368 122.368c67.482 0 122.368-54.886 122.368-122.368s-54.886-122.368-122.368-122.368zM513.536 161.28c-33.587 0-60.877-27.341-60.877-60.928s27.341-60.928 60.877-60.928c33.638 0 60.979 27.341 60.979 60.928s-27.341 60.928-60.979 60.928zM513.075 162.56c-35.226 0.614-45.978 16.998-49.306 54.17l-0.922 0.051v14.694c-0.512 13.414-0.512 29.082-0.512 47.053 0 59.699-45.619 101.478-98.458 149.862-55.603 50.893-118.63 108.595-118.63 195.738v101.888h102.4v-101.888c0-42.086 39.526-78.285 85.35-120.218 26.573-24.32 56.064-51.302 80.384-83.251 23.808 31.795 52.685 58.726 78.643 82.944 44.954 41.933 83.814 78.182 83.814 120.525v101.888h102.4v-101.888c0-86.886-61.798-144.538-116.326-195.379-51.866-48.384-96.666-90.163-96.666-150.17v-115.558l-52.173-0.461z" />
<glyph unicode="&#xe92d;" glyph-name="github" d="M512 908.8c-254.464 0-460.8-206.336-460.8-460.8 0-203.776 132.096-376.32 315.392-437.248 23.040-4.096 31.232 10.24 31.232 22.016 0 10.752-0.512 39.936-0.512 78.336-128-27.648-155.136 61.952-155.136 61.952-20.992 53.248-51.2 67.584-51.2 67.584-41.984 28.16 3.072 28.16 3.072 28.16 46.080-3.072 70.656-47.616 70.656-47.616 40.96-70.144 108.032-50.176 134.144-38.4 4.096 29.696 15.872 50.176 29.184 61.44-102.4 11.776-209.92 51.2-209.92 227.84 0 50.176 17.92 91.648 47.616 123.904-4.608 11.776-20.48 58.368 4.608 121.856 0 0 38.912 12.288 126.464-47.104 36.864 10.24 76.288 15.36 115.2 15.36s78.336-5.12 115.2-15.36c88.064 59.904 126.464 47.104 126.464 47.104 25.088-63.488 9.216-110.080 4.608-121.856 29.696-32.256 47.104-73.216 47.104-123.904 0-177.152-107.52-216.064-210.432-227.328 16.384-14.336 31.232-42.496 31.232-85.504 0-61.44-0.512-111.104-0.512-126.464 0-12.288 8.192-26.624 31.744-22.016 183.296 60.928 315.392 233.472 315.392 437.248 0 254.464-206.336 460.8-460.8 460.8v0z" />
<glyph unicode="&#xe92e;" glyph-name="github-alt" d="M512 934.4c-268.8 0-486.4-218.112-486.4-486.912s217.6-486.4 486.4-486.4c268.288 0 486.4 217.6 486.4 486.4s-217.6 486.912-486.4 486.912v0zM655.872 54.272c0 0 0-0.512-1.024 0-16.384-3.072-22.528 5.12-22.528 16.896v60.928c0 36.864-13.312 64-39.424 82.432 31.744 2.56 60.928 8.704 86.016 17.92 31.232 11.776 56.32 26.624 75.776 47.104 34.816 35.84 52.224 89.088 52.224 159.744 0 47.104-15.872 87.552-47.616 121.344 13.824 36.864 12.288 77.312-4.096 120.832l-12.288 1.024c-8.704 1.024-23.040-2.048-43.008-9.728-21.504-8.704-45.056-21.504-69.632-37.888-38.912 9.728-76.8 15.36-113.664 15.36-37.376 0-75.776-5.12-113.152-15.36-30.72 19.968-57.856 34.304-82.944 41.472-9.728 3.584-18.432 5.12-24.576 5.12h-18.432c-18.432-43.52-19.456-83.968-5.12-120.832-31.744-33.792-47.104-74.24-47.104-121.344 0-90.624 28.672-153.088 86.016-187.904 23.040-14.848 49.664-24.576 82.432-30.208 17.408-3.584 32.256-5.632 44.032-6.144-24.576-17.408-37.376-44.544-37.376-82.432v-69.12c-1.024-9.216-6.144-14.848-15.872-14.848-168.96 54.272-291.328 212.48-291.328 398.848 0 230.912 187.904 418.816 418.816 418.816 230.4 0 418.304-187.904 418.304-418.816 0.512-180.224-114.176-334.336-274.432-393.216v0z" />
<glyph unicode="&#xe92f;" glyph-name="gitter" d="M179.2 908.8h78.387v-587.315h-78.387v587.315zM374.989 752.179h78.285v-783.053h-78.285v783.053zM570.778 752.179h78.182v-783.053h-78.182v783.053zM766.515 752.179h78.285v-430.694h-78.285v430.694z" />
<glyph unicode="&#xe930;" glyph-name="google" d="M914.432 494.592c30.72-155.136-36.864-356.352-207.36-433.664-223.232-100.864-495.616-6.144-580.608 240.128-91.648 265.728 89.6 535.040 359.936 555.008 105.984 7.68 200.704-17.408 284.16-82.944 8.704-6.656 16.384-14.336 28.672-25.088-36.352-34.304-70.656-67.072-108.032-102.4-62.976 54.272-136.192 72.704-216.064 59.392-59.392-9.728-108.544-39.936-148.992-84.48-76.288-83.968-89.6-216.576-31.232-316.928 60.928-104.96 174.592-152.576 297.472-124.416 87.040 19.456 163.328 98.304 169.984 179.2h-224.256v136.192h376.32z" />
<glyph unicode="&#xe931;" glyph-name="google-plus" d="M660.48 499.2c0-138.24-30.72-256-163.84-322.56-189.44-92.16-414.72-10.24-481.28 184.32-71.68 209.92 81.92 430.080 296.96 445.44 87.040 5.12 163.84-15.36 235.52-66.56 5.12-5.12 15.36-10.24 20.48-20.48-25.6-25.6-61.44-51.2-87.040-81.92-51.2 40.96-107.52 56.32-179.2 46.080-46.080-10.24-87.040-30.72-117.76-66.56-66.56-66.56-76.8-174.080-25.6-256 51.2-87.040 133.12-117.76 235.52-97.28 71.68 15.36 122.88 61.44 133.12 133.12h-174.080v102.4h307.2zM1024 499.2v-102.4h-102.4v-102.4h-102.4v102.4h-102.4v102.4h102.4v102.4h102.4v-102.4z" />
<glyph unicode="&#xe932;" glyph-name="grid" d="M102.4 857.6h153.6v-153.6h-153.6v153.6zM409.6 857.6h153.6v-153.6h-153.6v153.6zM716.8 857.6h153.6v-153.6h-153.6v153.6zM102.4 550.4h153.6v-153.6h-153.6v153.6zM409.6 550.4h153.6v-153.6h-153.6v153.6zM716.8 550.4h153.6v-153.6h-153.6v153.6zM102.4 243.2h153.6v-153.6h-153.6v153.6zM409.6 243.2h153.6v-153.6h-153.6v153.6zM716.8 243.2h153.6v-153.6h-153.6v153.6z" />
<glyph unicode="&#xe933;" glyph-name="happy" d="M716.8 601.6c0-28.277-22.923-51.2-51.2-51.2s-51.2 22.923-51.2 51.2c0 28.277 22.923 51.2 51.2 51.2s51.2-22.923 51.2-51.2zM409.6 601.6c0-28.277-22.923-51.2-51.2-51.2s-51.2 22.923-51.2 51.2c0 28.277 22.923 51.2 51.2 51.2s51.2-22.923 51.2-51.2zM512-12.8c-254.054 0-460.8 206.694-460.8 460.8 0 254.054 206.746 460.8 460.8 460.8 254.106 0 460.8-206.746 460.8-460.8 0-254.106-206.694-460.8-460.8-460.8zM512 857.6c-225.843 0-409.6-183.757-409.6-409.6s183.757-409.6 409.6-409.6 409.6 183.757 409.6 409.6-183.757 409.6-409.6 409.6zM512 192c-118.374 0-220.262 68.864-259.533 175.462l48.026 17.715c31.795-86.272 114.79-141.978 211.507-141.978s179.763 55.706 211.507 141.926l48.026-17.715c-39.219-106.547-141.107-175.411-259.533-175.411z" />
<glyph unicode="&#xe934;" glyph-name="hashtag" d="M790.067 550.4l11.776 51.2h-140.8l47.104 204.8h-47.616l-47.155-204.8h-137.728l47.104 204.8h-47.565l-47.104-204.8h-160.307l-11.776-51.2h160.256l-47.104-204.8h-152.576l-11.776-51.2h152.576l-47.053-204.8h47.616l47.104 204.8h137.728l-47.104-204.8h47.616l47.104 204.8h148.48l11.776 51.2h-148.531l47.155 204.8h140.8zM554.547 345.6h-137.728l47.104 204.8h137.677l-47.053-204.8z" />
<glyph unicode="&#xe935;" glyph-name="heart" d="M512 0.512l-394.24 406.579c-3.123 3.021-92.928 90.419-92.928 208.333 0 184.525 139.469 268.544 269.056 268.544 99.226 0 182.118-61.235 218.112-92.621 35.994 31.386 118.886 92.621 218.112 92.621 129.587 0 269.056-84.070 269.056-268.544 0-117.914-89.805-205.312-93.594-208.998l-393.574-405.914zM293.888 831.232c-104.192 0-216.32-67.533-216.32-215.808 0-95.027 76.646-170.189 77.414-170.957l357.018-368.179 356.352 367.514c1.434 1.382 78.080 76.544 78.080 171.622 0 148.275-112.128 215.808-216.371 215.808-108.237 0-198.093-93.235-198.963-94.208l-19.098-20.070-19.098 20.070c-0.922 0.922-91.29 94.208-199.014 94.208z" />
<glyph unicode="&#xe936;" glyph-name="history" d="M51.2 857.6h51.2v-204.8h204.8v-51.2h-256v256zM537.6-40.96c-269.619 0-488.96 219.341-488.96 488.96h56.32c0-238.541 194.099-432.64 432.64-432.64s432.64 194.099 432.64 432.64-194.099 432.64-432.64 432.64c-178.483 0-340.787-107.008-403.917-266.291l-52.326 20.787c71.526 180.531 254.874 301.824 456.243 301.824 269.619 0 488.96-219.341 488.96-488.96s-219.341-488.96-488.96-488.96zM460.8 755.2h51.2v-358.4h-51.2v358.4zM503.473 435.881l182.926-182.9-39.824-39.83-182.926 182.9 39.824 39.83z" />
<glyph unicode="&#xe937;" glyph-name="home" d="M954.88 378.88l-442.88 442.368-442.88-442.368-35.84 35.84 478.72 479.232 478.72-479.232zM768 755.2h153.6v-153.6h-51.2v102.4h-102.4zM153.6 396.8h51.2v-358.4h153.6v307.2h256v-307.2h204.8v358.4h51.2v-409.6h-307.2v307.2h-153.6v-307.2h-256z" />
<glyph unicode="&#xe938;" glyph-name="image" d="M880.64 647.68c0-31.105-25.215-56.32-56.32-56.32s-56.32 25.215-56.32 56.32c0 31.105 25.215 56.32 56.32 56.32s56.32-25.215 56.32-56.32zM1024 38.4h-1024v819.2h1024v-819.2zM51.2 89.6h921.6v716.8h-921.6v-716.8zM647.322 224.922l-237.722 237.722-186.522-186.522-36.557 36.557 223.078 223.078 274.278-274.278zM800.922 224.922l-160.922 160.922-58.522-58.522-36.557 36.557 95.078 95.078 197.478-197.478z" />
<glyph unicode="&#xe939;" glyph-name="info" d="M621.056 366.592c-8.192-64-91.136-129.536-155.136-131.584-150.016-2.048 40.448 240.64-18.432 296.448 28.672 10.752 96.256 27.648 96.256-22.528 0-41.984-25.6-89.088-37.888-128.512-62.464-196.608 115.2 8.704 115.712 7.168 1.024-1.536 1.024-8.704-0.512-20.992-2.56-18.432 1.536 12.288 0 0v0zM591.872 669.696c0-51.2-112.64-75.776-112.64-18.432 0 52.736 112.64 76.288 112.64 18.432v0zM512-40.96c-269.619 0-488.96 219.341-488.96 488.96s219.341 488.96 488.96 488.96c269.619 0 488.96-219.341 488.96-488.96s-219.341-488.96-488.96-488.96zM512 880.64c-238.541 0-432.64-194.099-432.64-432.64s194.099-432.64 432.64-432.64 432.64 194.099 432.64 432.64-194.099 432.64-432.64 432.64z" />
<glyph unicode="&#xe93a;" glyph-name="instagram" d="M693.76 908.8h-363.008c-154.112 0-279.552-124.928-279.552-278.528v-364.544c0-153.6 125.44-278.528 279.552-278.528h362.496c154.624 0 279.552 124.928 279.552 278.528v364.544c0.512 153.6-124.928 278.528-279.040 278.528zM896 243.2c0-98.816-80.384-179.2-179.2-179.2h-409.6c-98.816 0-179.2 80.384-179.2 179.2v409.6c0 98.816 80.384 179.2 179.2 179.2h409.6c98.816 0 179.2-80.384 179.2-179.2v-409.6zM817.152 690.688c0-30.822-24.986-55.808-55.808-55.808s-55.808 24.986-55.808 55.808c0 30.822 24.986 55.808 55.808 55.808s55.808-24.986 55.808-55.808zM513.536 680.96c-130.56 0-237.056-105.472-237.056-235.52 0-130.56 105.984-236.032 237.056-236.032s237.056 105.523 237.056 236.032c-0.512 130.048-106.496 235.52-237.056 235.52v0 0zM516.096 294.4c-84.992 0-153.6 68.608-153.6 153.088s68.608 153.088 153.6 153.088 153.6-68.608 153.6-153.088c0-84.48-68.608-153.088-153.6-153.088v0 0z" />
<glyph unicode="&#xe93b;" glyph-name="italic" d="M646.656 679.424l-126.976-462.848c-7.68-28.672 11.264-37.376 90.624-39.936l-10.24-35.84h-292.864l10.24 35.328c80.896 2.56 101.888 11.264 109.568 39.936l126.976 462.848c7.68 29.184-9.728 37.376-88.576 39.936l9.728 36.352h292.864l-9.728-35.328c-80.896-3.072-103.936-11.264-111.616-40.448v0z" />
<glyph unicode="&#xe93c;" glyph-name="joomla" d="M399.36 273.92l87.040 87.040-184.32 189.44c-30.72 25.6-30.72 76.8 0 102.4 30.72 30.72 71.68 30.72 102.4 0l87.040 87.040c-51.2 51.2-117.76 66.56-184.32 51.2-10.24 56.32-61.44 97.28-117.76 97.28-66.56 0-117.76-51.2-117.76-117.76 0-56.32 40.96-102.4 92.16-117.76-20.48-66.56-5.12-143.36 51.2-194.56l184.32-184.32zM522.24 739.84c51.2 51.2 128 71.68 194.56 51.2 10.24 56.32 56.32 102.4 117.76 102.4 66.56 0 117.76-51.2 117.76-117.76 0-61.44-46.080-112.64-102.4-117.76 20.48-66.56 0-143.36-51.2-194.56l-87.040 87.040c30.72 25.6 30.72 76.8 0 102.4-25.6 30.72-76.8 30.72-102.4 0l-189.44-189.44-87.040 87.040zM721.92 99.84c-66.56-20.48-143.36-5.12-194.56 51.2l87.040 87.040c30.72-30.72 76.8-30.72 102.4 0s30.72 76.8 0 102.4l-189.44 189.44 87.040 87.040 189.44-189.44c51.2-51.2 66.56-122.88 51.2-184.32 56.32-10.24 102.4-56.32 102.4-117.76 0-66.56-51.2-117.76-117.76-117.76-61.44 0-107.52 40.96-117.76 92.16zM675.84 335.36l-189.44-189.44c-51.2-51.2-122.88-66.56-184.32-51.2-10.24-51.2-61.44-92.16-112.64-92.16-66.56 0-117.76 51.2-117.76 117.76 0 56.32 40.96 102.4 92.16 117.76-15.36 66.56 0 138.24 51.2 189.44l87.040-87.040c-30.72-30.72-30.72-76.8 0-102.4 30.72-30.72 71.68-30.72 102.4 0l189.44 189.44z" />
<glyph unicode="&#xe93d;" glyph-name="laptop" d="M0 140.8h1024v-51.2h-1024v51.2zM921.6 192h-819.2v563.2h819.2v-563.2zM153.6 243.2h716.8v460.8h-716.8v-460.8z" />
<glyph unicode="&#xe93e;" glyph-name="lifesaver" d="M512 934.4c-268.288 0-486.4-218.112-486.4-486.4s218.112-486.4 486.4-486.4c268.288 0 486.4 218.112 486.4 486.4s-218.112 486.4-486.4 486.4v0zM512 883.2c76.288 0 147.968-19.456 210.432-54.272l-115.712-115.712c-29.696 10.752-61.44 16.384-94.72 16.384-40.448 0-78.336-8.704-113.152-23.552l-113.152 113.152c66.048 40.96 143.36 64 226.304 64v0zM253.952 560.64c-14.848-34.816-23.552-72.192-23.552-112.64 0-33.28 5.632-65.024 16.896-94.72l-116.224-115.712c-34.816 62.464-54.272 134.144-54.272 210.432 0 82.944 23.040 160.256 64 226.304l113.152-113.152v-0.512zM512 12.8c-89.6 0-173.056 27.136-242.176 73.728l112.128 112.128c38.912-20.48 82.944-32.256 130.048-32.256 40.448 0 78.336 8.704 113.152 23.552l113.152-113.152c-66.048-40.96-143.36-64-226.304-64v0zM512 217.6c-126.976 0-230.4 103.424-230.4 230.4s103.424 230.4 230.4 230.4c126.976 0 230.4-103.424 230.4-230.4s-103.424-230.4-230.4-230.4v0zM770.048 334.848c14.848 34.816 23.552 72.704 23.552 113.152 0 47.104-11.776 91.136-32.256 130.048l112.128 112.128c46.592-69.12 73.728-152.576 73.728-242.176 0-82.944-23.040-160.256-64-226.304l-113.152 113.152z" />
<glyph unicode="&#xe93f;" glyph-name="link" d="M326.4 112.64c-28.57 0-55.808 12.134-78.797 35.174l-35.84 35.738c-47.104 47.206-47.104 110.541 0 157.645l158.771 158.72 39.782-39.834-158.72-158.669c-24.73-24.73-24.73-53.197 0-77.978l35.84-35.738c24.422-24.525 53.555-24.474 77.926-0.051l158.771 158.72 39.782-39.782-158.72-158.72c-22.989-23.091-50.227-35.226-78.797-35.226zM650.957 408.883l-39.782 39.782 158.72 158.72c12.134 12.237 18.586 25.702 18.586 39.014s-6.451 26.778-18.637 38.963l-35.891 35.84c-24.422 24.422-53.504 24.422-77.875 0l-158.669-158.72-39.885 39.834 158.72 158.72c45.978 45.978 111.667 45.926 157.542 0l35.84-35.84c23.040-22.989 35.174-50.227 35.174-78.797s-12.134-55.808-35.174-78.797l-158.669-158.72zM590.932 571.877l39.287-40.283-204.786-199.723-39.287 40.283 204.786 199.723z" />
<glyph unicode="&#xe940;" glyph-name="linkedin" d="M295.424 44.032v548.864h-182.272v-548.864h182.272zM204.288 667.648c63.488 0 103.424 41.984 103.424 94.72-1.024 54.272-39.424 95.232-101.888 95.232s-103.424-40.96-103.424-94.72c0-52.736 39.424-94.72 100.864-94.72h1.024v-0.512zM396.8 44.032h182.272v306.688c0 16.384 1.024 32.768 6.144 44.544 13.312 32.768 43.008 66.56 93.696 66.56 66.048 0 92.16-50.176 92.16-123.904v-293.888h182.272v314.88c0 168.448-90.112 246.784-209.92 246.784-98.304 0-141.824-54.784-165.888-92.672h1.024v79.872h-181.76c2.048-51.2 0-548.864 0-548.864v0 0z" />
<glyph unicode="&#xe941;" glyph-name="list" d="M307.2 755.2h614.4v-51.2h-614.4v51.2zM307.2 499.2h614.4v-51.2h-614.4v51.2zM307.2 243.2h614.4v-51.2h-614.4v51.2zM102.4 755.2h102.4v-51.2h-102.4v51.2zM102.4 499.2h102.4v-51.2h-102.4v51.2zM102.4 243.2h102.4v-51.2h-102.4v51.2z" />
<glyph unicode="&#xe942;" glyph-name="location" d="M512-51.302l-19.149 21.146c-13.875 15.258-339.507 377.395-339.507 632.781 0 197.222 160.87 357.632 358.656 357.632 197.734 0 358.656-160.41 358.656-357.632 0-255.386-325.632-617.523-339.507-632.781l-19.149-21.146zM512 908.544c-169.267 0-306.944-137.267-306.944-305.92 0-201.728 237.056-494.234 306.944-576.051 69.888 81.869 306.944 374.374 306.944 576.051 0 168.653-137.677 305.92-306.944 305.92zM512 468.48c-79.053 0-143.36 64.307-143.36 143.36s64.307 143.36 143.36 143.36 143.36-64.307 143.36-143.36-64.307-143.36-143.36-143.36zM512 704c-50.79 0-92.16-41.37-92.16-92.16 0-50.842 41.37-92.16 92.16-92.16s92.16 41.37 92.16 92.16c0 50.79-41.37 92.16-92.16 92.16z" />
<glyph unicode="&#xe943;" glyph-name="lock" d="M870.4-12.8h-716.8v563.2h716.8v-563.2zM204.8 38.4h614.4v460.8h-614.4v-460.8zM716.8 550.4h-51.2v159.744c0 81.306-68.915 147.456-153.6 147.456s-153.6-66.15-153.6-147.456v-159.744h-51.2v159.744c0 109.517 91.853 198.656 204.8 198.656s204.8-89.139 204.8-198.656v-159.744z" />
<glyph unicode="&#xe944;" glyph-name="mail" d="M512 367.923l-452.198 236.595 23.757 45.363 428.442-224.205 428.442 224.205 23.706-45.363zM51.2 755.2v-614.4h921.6v614.4h-921.6zM921.6 192h-819.2v512h819.2v-512z" />
<glyph unicode="&#xe945;" glyph-name="menu" d="M102.4 755.2h819.2v-51.2h-819.2v51.2zM102.4 499.2h819.2v-51.2h-819.2v51.2zM102.4 243.2h819.2v-51.2h-819.2v51.2z" />
<glyph unicode="&#xe946;" glyph-name="minus" d="M51.2 499.2h921.6v-51.2h-921.6v51.2z" />
<glyph unicode="&#xe947;" glyph-name="minus-circle" d="M486.4-15.36c-269.619 0-488.96 219.341-488.96 488.96s219.341 488.96 488.96 488.96c269.619 0 488.96-219.341 488.96-488.96s-219.341-488.96-488.96-488.96zM486.4 906.24c-238.541 0-432.64-194.099-432.64-432.64s194.099-432.64 432.64-432.64 432.64 194.099 432.64 432.64-194.099 432.64-432.64 432.64zM256 499.2h460.8v-51.2h-460.8v51.2z" />
<glyph unicode="&#xe948;" glyph-name="more" d="M256 448c0-56.554-45.846-102.4-102.4-102.4s-102.4 45.846-102.4 102.4c0 56.554 45.846 102.4 102.4 102.4s102.4-45.846 102.4-102.4zM614.4 448c0-56.554-45.846-102.4-102.4-102.4s-102.4 45.846-102.4 102.4c0 56.554 45.846 102.4 102.4 102.4s102.4-45.846 102.4-102.4zM972.8 448c0-56.554-45.846-102.4-102.4-102.4s-102.4 45.846-102.4 102.4c0 56.554 45.846 102.4 102.4 102.4s102.4-45.846 102.4-102.4z" />
<glyph unicode="&#xe949;" glyph-name="more-vertical" d="M614.4 806.4c0-56.554-45.846-102.4-102.4-102.4s-102.4 45.846-102.4 102.4c0 56.554 45.846 102.4 102.4 102.4s102.4-45.846 102.4-102.4zM614.4 448c0-56.554-45.846-102.4-102.4-102.4s-102.4 45.846-102.4 102.4c0 56.554 45.846 102.4 102.4 102.4s102.4-45.846 102.4-102.4zM614.4 89.6c0-56.554-45.846-102.4-102.4-102.4s-102.4 45.846-102.4 102.4c0 56.554 45.846 102.4 102.4 102.4s102.4-45.846 102.4-102.4z" />
<glyph unicode="&#xe94a;" glyph-name="move" d="M204.8 704h-153.6v-204.8h51.2v153.6h102.4zM51.2 140.8h51.2v-102.4h102.4v-51.2h-153.6zM716.8 140.8v-153.6h-153.6v51.2h102.4v102.4zM972.8 192h-716.8v716.8h716.8v-716.8zM307.2 243.2h614.4v614.4h-614.4v-614.4zM51.2 396.8h51.2v-153.6h-51.2v153.6zM307.2 38.4h153.6v-51.2h-153.6v51.2z" />
<glyph unicode="&#xe94b;" glyph-name="nut" d="M512-27.136l-409.6 240.333v469.606l409.6 240.333 409.6-240.333v-469.606l-409.6-240.333zM153.6 242.483l358.4-210.227 358.4 210.227v411.034l-358.4 210.278-358.4-210.278v-411.034zM512 243.2c-112.947 0-204.8 91.853-204.8 204.8s91.853 204.8 204.8 204.8c112.947 0 204.8-91.853 204.8-204.8s-91.853-204.8-204.8-204.8zM512 601.6c-84.685 0-153.6-68.915-153.6-153.6s68.915-153.6 153.6-153.6 153.6 68.915 153.6 153.6-68.915 153.6-153.6 153.6z" />
<glyph unicode="&#xe94c;" glyph-name="pagekit" d="M153.6 908.8h716.8v-768h-358.4v153.6h204.8v460.8h-409.6v-614.4h204.8v-153.6h-358.4z" />
<glyph unicode="&#xe94d;" glyph-name="paint-bucket" d="M522.752 908.8l-522.752-522.752 414.72-414.72 522.752 522.752-414.72 414.72zM864.768 494.080l-96.768-97.28h-680.96l435.712 439.296 342.016-342.016zM348.613 860.595l270.332-270.332-39.824-39.824-270.332 270.332 39.824 39.824zM946.688 345.6c0 0 77.312-105.472 77.312-172.032 0-47.104-38.912-83.968-77.312-83.968v0c-38.4 0-76.288 36.864-76.288 83.968 0 66.56 76.288 172.032 76.288 172.032v0z" />
<glyph unicode="&#xe94e;" glyph-name="pencil" d="M153.395 38.298l85.606 228.147 517.12 513.075c38.81 38.81 106.291 38.81 145.203-0.051 39.475-40.141 39.475-105.165 0.154-145.101l-523.11-521.062-224.973-75.008zM279.142 234.138l-41.37-113.766 112.998 37.683 514.355 512.41c19.61 19.968 19.61 52.787-0.205 72.96-19.2 19.2-53.197 19.456-72.704-0.154l-513.075-509.133zM727.188 714.561l109.038-108.545-36.122-36.285-109.038 108.545 36.122 36.285z" />
<glyph unicode="&#xe94f;" glyph-name="phone" d="M716.8-12.8h-358.4c-55.501 0-102.4 46.899-102.4 102.4v716.8c0 55.501 46.899 102.4 102.4 102.4h358.4c55.501 0 102.4-46.899 102.4-102.4v-716.8c0-55.501-46.899-102.4-102.4-102.4zM358.4 857.6c-26.778 0-51.2-24.422-51.2-51.2v-716.8c0-26.778 24.422-51.2 51.2-51.2h358.4c26.778 0 51.2 24.422 51.2 51.2v716.8c0 26.778-24.422 51.2-51.2 51.2h-358.4zM578.56 115.2c0-22.622-18.338-40.96-40.96-40.96s-40.96 18.338-40.96 40.96c0 22.622 18.338 40.96 40.96 40.96s40.96-18.338 40.96-40.96z" />
<glyph unicode="&#xe950;" glyph-name="phone-landscape" d="M870.4 140.8h-716.8c-55.501 0-102.4 46.899-102.4 102.4v358.4c0 55.501 46.899 102.4 102.4 102.4h716.8c55.501 0 102.4-46.899 102.4-102.4v-358.4c0-55.501-46.899-102.4-102.4-102.4zM153.6 652.8c-26.778 0-51.2-24.422-51.2-51.2v-358.4c0-26.778 24.422-51.2 51.2-51.2h716.8c26.778 0 51.2 24.422 51.2 51.2v358.4c0 26.778-24.422 51.2-51.2 51.2h-716.8zM235.52 422.4c0-22.622-18.338-40.96-40.96-40.96s-40.96 18.338-40.96 40.96c0 22.622 18.338 40.96 40.96 40.96s40.96-18.338 40.96-40.96z" />
<glyph unicode="&#xe951;" glyph-name="pinterest" d="M522.752 908.8c-241.152 0-369.152-161.792-369.152-338.432 0-81.92 43.52-183.808 113.664-216.576 10.752-5.12 16.384-2.56 18.432 7.68 2.048 7.68 11.264 45.568 15.36 63.488 1.536 5.632 0.512 10.752-4.096 15.872-22.528 28.16-40.96 79.872-40.96 127.488 0 123.392 93.184 242.688 252.416 242.688 137.216 0 233.472-93.696 233.472-227.328 0-151.040-76.288-256-175.616-256-54.784 0-95.744 45.056-82.944 100.864 15.872 66.56 46.592 138.24 46.592 185.856 0 43.008-23.040 78.848-70.656 78.848-56.32 0-101.376-57.856-101.376-135.68 0-49.664 16.896-82.944 16.896-82.944s-55.296-234.496-65.536-278.016c-17.408-73.728 2.048-194.048 4.096-204.288 1.024-5.632 7.168-7.68 10.752-2.56 5.632 7.168 72.192 107.52 91.136 179.712 6.656 26.112 34.816 133.12 34.816 133.12 18.432-34.816 71.68-64 128-64 168.448 0 290.304 155.136 290.304 347.648-1.024 184.32-151.552 322.56-345.6 322.56z" />
<glyph unicode="&#xe952;" glyph-name="play" d="M307.2 145.818v604.365l483.482-302.182-483.482-302.182zM358.4 657.818v-419.584l335.718 209.766-335.718 209.818z" />
<glyph unicode="&#xe953;" glyph-name="play-circle" d="M407.040 244.634v406.682l338.893-203.315-338.893-203.366zM463.36 551.885v-207.718l173.107 103.834-173.107 103.885zM512-40.96c-269.619 0-488.96 219.341-488.96 488.96s219.341 488.96 488.96 488.96c269.619 0 488.96-219.341 488.96-488.96s-219.341-488.96-488.96-488.96zM512 880.64c-238.541 0-432.64-194.099-432.64-432.64s194.099-432.64 432.64-432.64 432.64 194.099 432.64 432.64-194.099 432.64-432.64 432.64z" />
<glyph unicode="&#xe954;" glyph-name="plus" d="M460.8 908.8h51.2v-870.4h-51.2v870.4zM51.2 499.2h870.4v-51.2h-870.4v51.2z" />
<glyph unicode="&#xe955;" glyph-name="plus-circle" d="M486.4-15.36c-269.619 0-488.96 219.341-488.96 488.96s219.341 488.96 488.96 488.96c269.619 0 488.96-219.341 488.96-488.96s-219.341-488.96-488.96-488.96zM486.4 906.24c-238.541 0-432.64-194.099-432.64-432.64s194.099-432.64 432.64-432.64 432.64 194.099 432.64 432.64-194.099 432.64-432.64 432.64zM460.8 704h51.2v-460.8h-51.2v460.8zM256 499.2h460.8v-51.2h-460.8v51.2z" />
<glyph unicode="&#xe956;" glyph-name="pull" d="M350.72 550.4l135.68-133.12 135.68 133.12 35.84-35.84-171.52-168.96-171.52 168.96zM460.8 857.6h51.2v-460.8h-51.2v460.8zM819.2-12.8h-665.6v716.8h153.6v-51.2h-102.4v-614.4h563.2v614.4h-102.4v51.2h153.6z" />
<glyph unicode="&#xe957;" glyph-name="push" d="M622.080 755.2l-135.68 133.12-135.68-133.12-35.84 35.84 171.52 168.96 171.52-168.96zM460.8 908.8h51.2v-460.8h-51.2v460.8zM819.2-12.8h-665.6v716.8h153.6v-51.2h-102.4v-614.4h563.2v614.4h-102.4v51.2h153.6z" />
<glyph unicode="&#xe958;" glyph-name="question" d="M512-40.96c-269.619 0-488.96 219.341-488.96 488.96s219.341 488.96 488.96 488.96c269.619 0 488.96-219.341 488.96-488.96s-219.341-488.96-488.96-488.96zM512 880.64c-238.541 0-432.64-194.099-432.64-432.64s194.099-432.64 432.64-432.64 432.64 194.099 432.64 432.64-194.099 432.64-432.64 432.64zM588.288 221.696c0-29.691-24.069-53.76-53.76-53.76s-53.76 24.069-53.76 53.76c0 29.691 24.069 53.76 53.76 53.76s53.76-24.069 53.76-53.76zM564.736 358.4h-61.44c0 5.837 0.41 11.674 0.973 18.278 3.789 43.162 18.79 75.008 48.794 105.626 7.68 7.987 16.64 15.77 25.702 23.603 26.010 22.477 41.779 37.632 41.779 58.829 0 26.522-8.602 47.514-25.498 62.464-44.083 38.758-146.022 24.986-146.022-66.048h-61.44c0 97.331 74.701 148.275 148.48 148.275 72.55 0 145.869-49.715 145.869-144.742 0-50.79-34.97-81.050-62.976-105.318-7.629-6.605-15.206-13.107-21.862-19.968-20.275-20.736-29.030-39.168-31.437-65.894-0.563-6.605-0.922-10.803-0.922-15.104z" />
<glyph unicode="&#xe959;" glyph-name="quote-right" d="M884.224 561.152c0-84.992-15.36-135.168-65.536-216.576-51.712-82.944-153.088-164.352-226.816-202.24l-23.552 45.568c63.488 45.056 104.448 80.384 149.504 166.912 12.8 24.576 19.968 46.080 24.064 65.536-9.728-2.048-20.48-3.072-31.232-3.072-93.184 0-168.448 75.776-168.448 168.96s75.264 168.96 168.448 168.96c77.312 0 142.848-52.224 162.304-123.904 7.168-20.48 11.264-43.52 11.264-70.144v0zM444.416 561.152c0-84.992-15.36-135.168-65.536-216.576-51.712-82.944-153.088-164.352-226.816-202.24l-23.552 45.568c63.488 45.056 104.448 80.384 149.504 166.912 12.8 24.576 19.968 46.080 24.064 65.536-9.728-2.048-20.48-3.072-31.232-3.072-93.184 0-168.448 75.776-168.448 168.96s75.264 168.96 168.448 168.96c77.312 0 142.848-52.224 162.304-123.904 7.168-20.48 11.264-43.52 11.264-70.144v0z" />
<glyph unicode="&#xe95a;" glyph-name="receiver" d="M711.782-0.614v0h-1.997c-143.565 0.922-288.358 124.518-411.034 245.248-111.667 113.613-239.309 261.786-237.568 403.763 1.741 140.851 109.875 235.11 114.483 239.053l18.176 15.616 210.739-210.842-57.549-150.272 250.368-250.317 152.064 55.706 217.549-217.498-15.462-18.125c-3.891-4.608-97.178-112.333-239.77-112.333zM192.461 831.283c-27.341-30.003-78.49-97.434-79.565-183.501-1.485-122.88 118.067-260.403 222.413-366.541 69.478-68.403 232.909-229.274 374.835-230.144l1.638-25.856v25.856c86.784 0 153.754 50.227 183.501 77.363l-159.027 158.976-152.064-55.706-297.472 297.37 57.549 150.323-151.808 151.859z" />
<glyph unicode="&#xe95b;" glyph-name="refresh" d="M514.56-25.088c-214.579 0.614-389.12 175.411-389.12 389.632 0 214.528 174.541 389.12 389.12 389.12 45.517 0 90.266-7.782 132.966-23.142l-19.098-52.992c-36.557 13.158-74.854 19.814-113.869 19.814-183.501 0-332.8-149.299-332.8-332.8 0-183.296 149.35-332.851 332.851-333.363 183.45 0 332.749 149.299 332.749 332.851 0 8.090-0.512 15.77-0.973 23.347l56.218 3.379c0.563-8.704 1.075-17.459 1.075-26.726-0.051-214.579-174.592-389.12-389.12-389.12zM519.373 537.446l-36.25 36.147 135.578 135.987-129.946 129.894 36.198 36.25 166.042-166.093z" />
<glyph unicode="&#xe95c;" glyph-name="reply" d="M906.24 288.768c-80.896 158.208-197.632 269.312-342.016 332.8-23.040 10.24-65.024 24.576-103.424 35.84v200.192l-409.6-358.4 409.6-358.4v198.144c91.136-17.408 179.2-54.272 260.608-108.544 155.648-103.936 228.864-219.648 228.864-219.648s12.8 166.912-44.032 278.016v0zM758.784 267.264c-84.48 57.856-195.072 109.056-349.184 133.632v-138.752l-279.040 237.056 279.040 243.2v-130.56c15.36-3.072 59.392-11.264 121.344-35.328 150.016-59.392 264.704-177.664 321.536-286.208 16.384-31.744 42.496-91.136 52.736-149.504-41.472 48.64-99.84 94.72-146.432 126.464v0z" />
<glyph unicode="&#xe95d;" glyph-name="rss" d="M254.464 99.84c0-52.312-42.408-94.72-94.72-94.72s-94.72 42.408-94.72 94.72c0 52.312 42.408 94.72 94.72 94.72s94.72-42.408 94.72-94.72zM630.17 10.035l-56.115 5.478c1.485 14.95 2.458 29.44 2.458 44.851 0 250.163-204.646 453.632-456.192 453.632-14.182 0-27.853-1.024-41.523-1.997l-3.994 56.269c14.95 1.024 30.003 2.099 45.517 2.099 282.573 0 512.461-228.762 512.461-509.952 0-17.306-1.024-33.638-2.611-50.381zM922.573 10.957l-56.218 3.686c1.024 15.258 1.485 30.054 1.485 45.773 0 409.907-335.36 743.475-747.52 743.475-14.49 0-28.518-0.512-42.496-1.024l-2.048 56.32c14.643 0.512 29.338 1.024 44.544 1.024 443.238 0 803.84-358.758 803.84-799.744 0-17.050-0.512-33.075-1.587-49.51z" />
<glyph unicode="&#xe95e;" glyph-name="search" d="M460.8 112.64c-213.146 0-386.56 173.414-386.56 386.56s173.414 386.56 386.56 386.56 386.56-173.414 386.56-386.56-173.414-386.56-386.56-386.56zM460.8 829.44c-182.118 0-330.24-148.122-330.24-330.24s148.122-330.24 330.24-330.24 330.24 148.173 330.24 330.24-148.122 330.24-330.24 330.24zM736.728 263.106l204.803-204.803-39.788-39.788-204.803 204.803 39.788 39.788z" />
<glyph unicode="&#xe95f;" glyph-name="server" d="M153.6 806.4h51.2v-102.4h-51.2v102.4zM256 806.4h51.2v-102.4h-51.2v102.4zM358.4 806.4h51.2v-102.4h-51.2v102.4zM819.2 806.4h51.2v-51.2h-51.2v51.2zM819.2 448h51.2v-51.2h-51.2v51.2zM506.88-28.16c-53.658 0-97.28 43.674-97.28 97.28 0 53.658 43.622 97.28 97.28 97.28 53.606 0 97.28-43.674 97.28-97.28s-43.674-97.28-97.28-97.28zM506.88 115.2c-25.395 0-46.080-20.685-46.080-46.080s20.685-46.080 46.080-46.080 46.080 20.634 46.080 46.029-20.685 46.131-46.080 46.131zM153.6 448h51.2v-102.4h-51.2v102.4zM256 448h51.2v-102.4h-51.2v102.4zM486.4 243.2h51.2v-102.4h-51.2v102.4zM153.6 89.6h307.2v-51.2h-307.2v51.2zM563.2 89.6h307.2v-51.2h-307.2v51.2zM972.8 601.6h-921.6v307.2h921.6v-307.2zM102.4 652.8h819.2v204.8h-819.2v-204.8zM972.8 243.2h-921.6v307.2h921.6v-307.2zM102.4 294.4h819.2v204.8h-819.2v-204.8z" />
<glyph unicode="&#xe960;" glyph-name="settings" d="M312.832 642.56c-73.677 0-133.632 60.877-133.632 135.68s59.955 135.68 133.632 135.68c73.677 0 133.632-60.877 133.632-135.68s-59.955-135.68-133.632-135.68zM312.832 862.72c-45.466 0-82.432-37.888-82.432-84.48s36.966-84.48 82.432-84.48c45.466 0 82.432 37.888 82.432 84.48s-36.966 84.48-82.432 84.48zM312.832 28.16c-73.677 0-133.632 60.826-133.632 135.68 0 74.803 59.955 135.629 133.632 135.629s133.632-60.826 133.632-135.629c0-74.854-59.955-135.68-133.632-135.68zM312.832 248.32c-45.466 0-82.432-37.888-82.432-84.429 0-46.592 36.966-84.48 82.432-84.48s82.432 37.888 82.432 84.48c0 46.49-36.966 84.429-82.432 84.429zM673.28 335.36c-74.854 0-135.68 60.826-135.68 135.68 0 74.803 60.826 135.68 135.68 135.68 74.803 0 135.629-60.877 135.629-135.68 0.051-74.854-60.826-135.68-135.629-135.68zM673.28 555.52c-46.592 0-84.48-37.888-84.48-84.48s37.888-84.48 84.48-84.48c46.541 0 84.429 37.888 84.429 84.48 0.051 46.592-37.837 84.48-84.429 84.48zM51.2 806.4h153.6v-51.2h-153.6v51.2zM512 806.4h409.6v-51.2h-409.6v51.2zM51.2 499.2h409.6v-51.2h-409.6v51.2zM768 499.2h153.6v-51.2h-153.6v51.2zM51.2 192h153.6v-51.2h-153.6v51.2zM512 192h409.6v-51.2h-409.6v51.2z" />
<glyph unicode="&#xe961;" glyph-name="shrink" d="M563.2 755.2h51.2v-204.8h204.8v-51.2h-256zM204.8 396.8h256v-256h-51.2v204.8h-204.8zM901.694 877.529l39.788-39.788-307.187-307.187-39.788 39.788 307.187 307.187zM389.705 365.529l39.788-39.788-307.187-307.187-39.788 39.788 307.187 307.187z" />
<glyph unicode="&#xe962;" glyph-name="sign-in" d="M358.4 857.6h512v-768h-512v51.2h460.8v665.6h-460.8zM465.92 273.92l-30.72 30.72 142.336 143.36h-372.736v51.2h372.736l-142.336 143.36 30.72 29.696 199.68-198.656z" />
<glyph unicode="&#xe963;" glyph-name="sign-out" d="M670.72 273.92l-30.72 30.72 142.336 143.36h-372.736v51.2h372.736l-142.336 143.36 30.72 29.696 199.68-198.656zM665.6 857.6h-512v-768h512v51.2h-460.8v665.6h460.8z" />
<glyph unicode="&#xe964;" glyph-name="social" d="M334.435 437.682l363.573-168.938-23.733-51.077-363.573 168.938 23.733 51.077zM679.174 703.798l23.998-50.953-358.475-168.837-23.998 50.953 358.475 168.837zM793.6 578.56c-80.435 0-145.92 65.434-145.92 145.92s65.434 145.92 145.92 145.92 145.92-65.434 145.92-145.92c0-80.435-65.485-145.92-145.92-145.92zM793.6 814.080c-49.408 0-89.6-40.192-89.6-89.6s40.192-89.6 89.6-89.6 89.6 40.192 89.6 89.6c0 49.408-40.192 89.6-89.6 89.6zM793.6 56.371c-80.435 0-145.92 65.434-145.92 145.92s65.434 145.92 145.92 145.92 145.92-65.434 145.92-145.92-65.485-145.92-145.92-145.92zM793.6 291.84c-49.408 0-89.6-40.192-89.6-89.6s40.192-89.6 89.6-89.6 89.6 40.192 89.6 89.6-40.192 89.6-89.6 89.6zM230.4 312.371c-80.435 0-145.92 65.434-145.92 145.92s65.485 145.869 145.92 145.869 145.92-65.485 145.92-145.92-65.485-145.869-145.92-145.869zM230.4 547.84c-49.408 0-89.6-40.192-89.6-89.6s40.192-89.6 89.6-89.6 89.6 40.192 89.6 89.6-40.192 89.6-89.6 89.6z" />
<glyph unicode="&#xe965;" glyph-name="soundcloud" d="M880.64 478.72c-20.48 0-40.96-5.12-56.371-10.24-10.189 128-122.829 230.4-256 230.4-30.72 0-61.44-5.12-87.040-15.36-10.189-5.12-15.309-10.24-15.309-10.24v-481.28h409.6c81.971 0 143.411 61.44 143.411 143.36 5.069 76.8-61.491 143.36-138.291 143.36v0zM307.2 627.2h76.8v-435.2h-76.8v435.2zM153.6 550.4h76.8v-358.4h-76.8v358.4zM0 448h76.8v-256h-76.8v256z" />
<glyph unicode="&#xe966;" glyph-name="star" d="M815.206-8.602l-303.206 157.645-303.155-157.645 57.754 333.875-245.709 237.005 339.354 49.152 151.757 304.077 151.757-304.077 339.405-49.152-245.76-237.005 57.805-333.875zM512 207.36l234.394-121.958-44.595 258.048 189.44 182.784-261.683 37.888-117.555 235.571-117.555-235.571-261.734-37.888 189.491-182.784-44.646-258.048 234.445 121.958z" />
<glyph unicode="&#xe967;" glyph-name="strikethrough" d="M307.2 293.376h33.28c50.688-109.568 113.152-158.72 192.512-158.72 92.672 0 128.512 60.928 128.512 114.176 0 68.608-47.616 95.232-162.816 136.192-86.528 30.208-179.712 57.344-179.712 174.080 0 119.296 95.232 191.488 213.504 191.488 53.248 0 88.576-11.264 118.784-23.040l31.232 27.648h24.576v-183.808h-33.28c-31.232 87.552-83.968 138.24-158.208 138.24-62.976 0-111.616-40.96-111.616-109.568 0-64.512 51.2-89.6 153.088-123.904 86.528-29.696 179.2-58.88 179.2-177.152 0-94.208-56.832-205.824-215.040-205.824-51.2 0-102.912 12.288-139.264 27.648l-48.128-31.232h-26.624v203.776zM153.6 448h768v-51.2h-768v51.2z" />
<glyph unicode="&#xe968;" glyph-name="table" d="M51.2 806.4h921.6v-51.2h-921.6v51.2zM51.2 601.6h921.6v-51.2h-921.6v51.2zM51.2 396.8h921.6v-51.2h-921.6v51.2zM51.2 192h921.6v-51.2h-921.6v51.2z" />
<glyph unicode="&#xe969;" glyph-name="tablet" d="M819.2-12.8h-563.2c-55.501 0-102.4 46.899-102.4 102.4v716.8c0 55.501 46.899 102.4 102.4 102.4h563.2c55.501 0 102.4-46.899 102.4-102.4v-716.8c0-55.501-46.899-102.4-102.4-102.4zM256 857.6c-26.778 0-51.2-24.422-51.2-51.2v-716.8c0-26.778 24.422-51.2 51.2-51.2h563.2c26.778 0 51.2 24.422 51.2 51.2v716.8c0 26.778-24.422 51.2-51.2 51.2h-563.2zM578.56 125.44c0-22.622-18.338-40.96-40.96-40.96s-40.96 18.338-40.96 40.96c0 22.622 18.338 40.96 40.96 40.96s40.96-18.338 40.96-40.96z" />
<glyph unicode="&#xe96a;" glyph-name="tablet-landscape" d="M870.4 38.4h-716.8c-55.501 0-102.4 46.899-102.4 102.4v563.2c0 55.501 46.899 102.4 102.4 102.4h716.8c55.501 0 102.4-46.899 102.4-102.4v-563.2c0-55.501-46.899-102.4-102.4-102.4zM153.6 755.2c-26.778 0-51.2-24.422-51.2-51.2v-563.2c0-26.778 24.422-51.2 51.2-51.2h716.8c26.778 0 51.2 24.422 51.2 51.2v563.2c0 26.778-24.422 51.2-51.2 51.2h-716.8zM230.4 422.4c0-22.622-18.338-40.96-40.96-40.96s-40.96 18.338-40.96 40.96c0 22.622 18.338 40.96 40.96 40.96s40.96-18.338 40.96-40.96z" />
<glyph unicode="&#xe96b;" glyph-name="tag" d="M392.192 35.84c-21.709 0-42.035 8.346-57.293 23.603l-211.456 211.456c-15.258 15.258-23.603 35.584-23.603 57.293s8.397 42.035 23.603 57.242l451.123 451.123c14.95 15.002 35.789 23.603 57.242 23.603h197.171c24.986 0 49.408-10.086 67.021-27.699 16.794-16.128 26.675-37.222 28.16-60.621v-207.104c0-20.122-8.192-39.373-23.091-54.272l-451.584-451.021c-15.258-15.258-35.584-23.603-57.293-23.603zM631.808 803.84c-6.502 0-13.005-2.662-17.408-7.117l-451.174-451.123c-4.557-4.557-7.066-10.752-7.066-17.408 0-6.707 2.509-12.902 7.117-17.51l211.456-211.456c9.165-9.114 25.805-9.114 34.97 0l451.584 451.123c4.25 4.25 6.605 9.37 6.605 14.387v205.312c-0.563 7.475-4.352 15.514-11.315 22.221-7.475 7.373-17.613 11.571-27.648 11.571h-197.12zM768 652.8c0-28.277-22.923-51.2-51.2-51.2s-51.2 22.923-51.2 51.2c0 28.277 22.923 51.2 51.2 51.2s51.2-22.923 51.2-51.2z" />
<glyph unicode="&#xe96c;" glyph-name="thumbnails" d="M460.8 499.2h-307.2v307.2h307.2v-307.2zM204.8 550.4h204.8v204.8h-204.8v-204.8zM870.4 499.2h-307.2v307.2h307.2v-307.2zM614.4 550.4h204.8v204.8h-204.8v-204.8zM870.4 89.6h-307.2v307.2h307.2v-307.2zM614.4 140.8h204.8v204.8h-204.8v-204.8zM460.8 89.6h-307.2v307.2h307.2v-307.2zM204.8 140.8h204.8v204.8h-204.8v-204.8z" />
<glyph unicode="&#xe96d;" glyph-name="trash" d="M716.8 806.4h-51.2v51.2h-307.2v-51.2h-51.2v102.4h409.6zM819.2-12.8h-614.4v768h51.2v-716.8h512v716.8h51.2zM409.6 601.6h51.2v-460.8h-51.2v460.8zM563.2 601.6h51.2v-460.8h-51.2v460.8zM102.4 806.4h819.2v-51.2h-819.2v51.2z" />
<glyph unicode="&#xe96e;" glyph-name="triangle-down" d="M256 601.6h512l-256-256z" />
<glyph unicode="&#xe96f;" glyph-name="triangle-left" d="M614.4 704l-256-256 256-256z" />
<glyph unicode="&#xe970;" glyph-name="triangle-right" d="M409.6 704l256-256-256-256z" />
<glyph unicode="&#xe971;" glyph-name="triangle-up" d="M256 294.4l256 256 256-256z" />
<glyph unicode="&#xe972;" glyph-name="tripadvisor" d="M973.875 557.261c12.032 51.405 50.125 103.014 50.125 103.014h-171.315c-95.898 62.106-212.48 94.925-341.709 94.925-133.99 0-255.027-33.331-350.464-96.051h-160.512c0 0 37.786-50.534 49.971-101.786-31.283-42.854-49.818-94.822-49.818-151.757 0-141.466 115.149-256.461 256.563-256.461 80.691 0 152.371 37.734 199.731 96.205l54.426-81.869 55.040 82.688c24.32-31.283 56.32-56.883 94.106-74.291 62.106-28.006 131.789-31.334 195.84-7.68 132.557 49.306 200.346 197.222 151.757 329.677-8.96 23.706-20.48 44.851-34.56 63.386h0.819zM838.656 212.787c-51.302-18.995-106.906-16.794-156.672 6.093-35.226 16.23-64.102 41.83-84.838 73.626-8.397 12.8-16.026 26.624-21.35 41.523-6.349 16.794-9.523 34.202-11.11 51.917-3.226 35.277 1.894 71.475 17.357 104.602 22.938 49.715 64.051 87.552 115.2 106.445 106.24 39.168 224-15.36 263.168-121.139 39.014-105.779-15.411-223.744-120.986-262.861l-0.768-0.205zM426.086 291.021c-36.864-54.221-99.072-90.112-169.421-90.112-112.998 0-204.851 92.006-204.851 204.595 0 112.794 91.904 204.902 204.851 204.902 112.845 0 204.749-92.16 204.749-204.902 0-7.014-1.229-13.363-2.048-20.275-3.43-34.714-14.541-67.226-33.178-94.874v0.666h-0.102zM126.566 408.32c0-69.99 56.934-126.925 126.771-126.925 69.786 0 126.566 56.832 126.566 126.925 0 69.581-56.832 126.362-126.566 126.362-69.837 0.051-126.72-56.781-126.771-126.362v0zM640.717 408.32c0-69.99 56.525-126.925 126.515-126.925 69.786 0 126.669 56.73 126.669 126.925 0 69.581-56.832 126.362-126.669 126.362s-126.822-56.781-126.822-126.362h0.307zM170.189 408.32c0 45.722 37.171 82.842 82.637 82.842 45.517 0 83.2-37.222 83.2-82.842 0-45.978-37.12-83.302-83.2-83.302-46.131 0-83.2 37.325-83.2 83.302h0.563zM683.725 408.32c0 45.722 37.171 82.842 83.302 82.842 45.363 0 82.432-37.222 82.432-82.842 0-45.978-37.171-83.302-83.251-83.302s-83.2 37.325-83.2 83.302h0.717zM510.822 710.4c92.058 0 175.36-16.589 248.269-49.562-27.392-0.768-54.323-5.53-81.203-15.36-64.717-23.706-115.917-71.066-144.128-133.325-13.414-28.211-20.378-58.010-22.938-88.064-9.574 131.174-117.76 235.213-250.931 237.926 72.96 31.334 157.542 48.384 249.037 48.384h1.894z" />
<glyph unicode="&#xe973;" glyph-name="tumblr" d="M352.512 519.782c0 0 0-173.722 0-255.795 0-14.438 0-33.792 4.813-48.23 19.302-77.261 57.907-130.304 130.304-159.232 67.533-24.166 120.627-24.166 188.211 0 28.928 9.626 57.958 33.741 57.958 33.741l-43.469 115.866c0 0-53.043-19.354-82.074-14.49-28.928 4.813-62.771 33.792-62.771 77.21 0 82.074 0 250.982 0 250.982h144.794v144.691h-144.794v193.075h-125.389c0 0-4.813-33.792-9.626-48.23-9.677-43.469-38.656-91.699-72.397-125.542-38.656-38.554-82.074-53.043-82.074-53.043v-111.002h96.512z" />
<glyph unicode="&#xe974;" glyph-name="tv" d="M358.4 140.8h307.2v-51.2h-307.2v51.2zM1024 192h-1024v614.4h1024v-614.4zM51.2 243.2h921.6v512h-921.6v-512z" />
<glyph unicode="&#xe975;" glyph-name="twitter" d="M972.8 717.312c-33.843-14.797-70.349-25.037-108.493-29.696 39.066 23.552 68.915 60.467 83.046 104.448-36.506-21.504-76.902-37.325-120.013-45.568-34.509 36.864-83.61 59.904-137.984 59.904-104.499 0-189.082-84.992-189.082-189.44 0-14.848 1.69-29.133 4.966-42.957-157.338 8.141-296.55 82.944-389.837 197.632-16.282-27.648-25.6-60.467-25.6-95.232 0-65.587 33.331-123.443 84.122-157.235-31.078 1.075-60.262 9.267-85.709 23.603v-2.048c0-91.597 65.229-168.397 151.706-185.907-15.872-4.045-32.614-6.093-49.818-6.093-12.186 0-23.962 1.024-35.584 3.021 24.166-75.213 93.901-129.997 176.691-131.533-64.717-50.176-146.278-80.384-234.854-80.384-15.309 0-30.31 0.512-45.158 2.56 83.712-53.76 183.091-84.992 289.894-84.992 347.75 0 538.010 288.205 538.010 537.6 0 8.192-0.205 16.384-0.666 24.576 36.966 26.624 68.966 59.955 94.362 97.741z" />
<glyph unicode="&#xe976;" glyph-name="uikit" d="M737.28 801.28l-158.72-102.4 189.44-112.64v-286.72l-256-143.36-256 143.36v225.28l-153.6 87.040v-409.6l404.48-240.64 414.72 240.64v486.4zM501.76 744.96l-158.72 92.16 158.72 102.4 158.72-97.28z" />
<glyph unicode="&#xe977;" glyph-name="unlock" d="M870.4-12.8h-716.8v563.2h716.8v-563.2zM204.8 38.4h614.4v460.8h-614.4v-460.8zM358.4 524.8h-51.2v184.32c0 110.080 91.853 199.68 204.8 199.68s204.8-89.6 204.8-199.68h-51.2c0 81.869-68.915 148.48-153.6 148.48s-153.6-66.611-153.6-148.48v-184.32z" />
<glyph unicode="&#xe978;" glyph-name="upload" d="M698.675 532.275l-212.275 212.326-212.275-212.326-36.25 36.25 248.525 248.474 248.525-248.474zM153.6 89.6h665.6v-51.2h-665.6v51.2zM460.8 755.2h51.2v-563.2h-51.2v563.2z" />
<glyph unicode="&#xe979;" glyph-name="user" d="M506.88 378.88c-139.725 0-253.44 113.664-253.44 253.44s113.664 253.44 253.44 253.44c139.725 0 253.44-113.664 253.44-253.44s-113.715-253.44-253.44-253.44zM506.88 829.44c-108.698 0-197.12-88.422-197.12-197.12s88.422-197.12 197.12-197.12c108.698 0 197.12 88.422 197.12 197.12s-88.474 197.12-197.12 197.12zM919.45-27.853c-38.912 223.795-210.227 386.253-407.45 386.253-197.376 0-368.742-158.208-407.45-376.166l-55.45 9.882c43.52 244.89 238.182 422.605 462.899 422.605 224.666 0 419.328-182.067 462.95-432.947l-55.501-9.626z" />
<glyph unicode="&#xe97a;" glyph-name="users" d="M394.24 312.371c-114.33 0-207.36 92.979-207.36 207.309s92.979 207.36 207.36 207.36 207.36-92.979 207.36-207.36c0-114.33-92.979-207.309-207.36-207.309zM394.24 670.72c-83.251 0-151.040-67.789-151.040-151.040s67.789-151.040 151.040-151.040 151.040 67.738 151.040 151.040-67.738 151.040-151.040 151.040zM704.41 18.278c-28.723 167.629-164.25 294.042-315.29 294.042-149.197 0-276.787-117.043-310.323-284.57l-55.245 11.059c38.912 194.253 189.184 329.83 365.568 329.83 181.043 0 336.947-143.36 370.79-340.838l-55.501-9.523zM955.136 234.086c-19.661 138.035-130.97 242.074-258.816 242.074v56.32c41.523 0 80.282 22.17 103.782 59.238 22.784 36.096 26.214 79.309 9.011 115.558-17.869 37.632-53.504 63.642-95.386 69.427-41.626 5.939-81.459-8.755-108.8-40.090l-42.394 37.12c39.475 45.107 98.816 67.021 158.925 58.778 60.826-8.499 112.589-46.285 138.547-101.171 25.498-53.811 20.89-117.299-12.288-169.779-12.288-19.405-27.546-35.994-44.954-49.203 107.315-41.626 190.157-144.128 208.179-270.285l-55.808-7.987z" />
<glyph unicode="&#xe97b;" glyph-name="video-camera" d="M921.6 652.8v-409.6l-307.2 204.8zM102.4 704h614.4v-512h-614.4v512z" />
<glyph unicode="&#xe97c;" glyph-name="vimeo" d="M105.728 571.392c-11.52 11.418-21.043 26.010-30.566 38.502-16.998 21.504-7.014 21.043 14.029 39.526 52.531 46.592 102.605 97.075 160.102 137.626 52.070 36.506 121.088 60.058 168.243 1.997 43.469-53.504 44.493-134.605 55.501-199.219 11.008-67.021 21.555-135.578 45.056-199.731 6.502-18.022 18.944-52.122 41.472-54.989 29.030-3.994 58.624 46.95 72.090 65.997 35.021 50.534 82.483 118.63 76.493 183.654-5.888 69.069-80.486 56.064-127.078 39.578 7.475 77.517 79.616 164.659 149.094 194.15 73.677 30.566 183.245 30.054 220.262-53.043 39.526-90.061 3.994-194.662-39.066-276.275-47.002-88.627-107.52-170.65-172.186-247.245-57.037-68.045-124.518-142.694-209.562-175.206-97.126-37.018-154.675 35.123-187.75 118.682-36.096 90.982-54.067 193.075-80.128 287.795-10.957 40.038-23.962 85.606-49.971 118.63-33.946 42.65-72.499 2.56-106.035-20.429-4.506 4.506 2.56 1.997 0 0v0z" />
<glyph unicode="&#xe97d;" glyph-name="warning" d="M563.2 243.2c0-28.277-22.923-51.2-51.2-51.2s-51.2 22.923-51.2 51.2c0 28.277 22.923 51.2 51.2 51.2s51.2-22.923 51.2-51.2zM512-40.96c-269.619 0-488.96 219.341-488.96 488.96s219.341 488.96 488.96 488.96c269.619 0 488.96-219.341 488.96-488.96s-219.341-488.96-488.96-488.96zM512 880.64c-238.541 0-432.64-194.099-432.64-432.64s194.099-432.64 432.64-432.64 432.64 194.099 432.64 432.64-194.099 432.64-432.64 432.64zM561.664 564.736c-6.144-93.184-20.992-182.784-20.992-182.784-2.56-29.696-14.848-36.352-29.184-36.352-15.36 0-25.6 6.656-28.672 36.352 0 0-13.824 89.6-20.48 182.784-3.584 60.416 0 88.064 0 88.064 0 28.16 22.016 50.176 49.152 51.2 27.648-0.512 50.176-22.528 50.176-51.2 0 0 3.584-27.648 0-88.064v0z" />
<glyph unicode="&#xe97e;" glyph-name="whatsapp" d="M855.040 791.040c-92.16 92.16-209.92 143.36-343.040 143.36-266.24 0-481.28-215.040-481.28-481.28 0-87.040 20.48-168.96 66.56-240.64l-66.56-250.88 256 66.56c71.68-40.96 148.48-61.44 230.4-61.44v0 0c266.24 0 481.28 215.040 481.28 481.28 0 133.12-51.2 256-143.36 343.040zM517.12 53.76v0c-71.68 0-143.36 20.48-204.8 56.32l-15.36 10.24-153.6-40.96 40.96 148.48-10.24 15.36c-40.96 61.44-61.44 138.24-61.44 215.040 0 220.16 179.2 399.36 399.36 399.36 107.52 0 209.92-40.96 281.6-117.76 76.8-76.8 117.76-174.080 117.76-281.6 5.12-225.28-174.080-404.48-394.24-404.48zM737.28 350.72c-10.24 5.12-71.68 35.84-81.92 40.96s-20.48 5.12-25.6-5.12c-10.24-10.24-30.72-40.96-40.96-46.080-5.12-10.24-15.36-10.24-25.6-5.12s-51.2 20.48-97.28 61.44c-35.84 30.72-61.44 71.68-66.56 81.92s0 20.48 5.12 25.6c5.12 5.12 10.24 10.24 15.36 20.48 5.12 5.12 10.24 10.24 10.24 20.48 5.12 10.24 0 15.36 0 20.48s-25.6 61.44-35.84 87.040c-10.24 25.6-20.48 20.48-25.6 20.48s-15.36 0-20.48 0c-10.24 0-20.48-5.12-30.72-15.36s-40.96-40.96-40.96-102.4c0-61.44 40.96-117.76 51.2-122.88 5.12-10.24 87.040-128 204.8-179.2 30.72-10.24 51.2-20.48 66.56-25.6 30.72-10.24 56.32-10.24 76.8-5.12 25.6 5.12 71.68 30.72 81.92 56.32s10.24 51.2 5.12 56.32c-5.12 5.12-15.36 10.24-25.6 15.36z" />
<glyph unicode="&#xe97f;" glyph-name="wordpress" d="M512 934.4c-266.24 0-486.4-220.16-486.4-486.4s220.16-486.4 486.4-486.4c266.24 0 486.4 220.16 486.4 486.4s-220.16 486.4-486.4 486.4v0 0zM798.72 760.32h-5.12c-40.96 0-71.68-35.84-71.68-76.8 0-35.84 20.48-66.56 40.96-97.28 15.36-30.72 35.84-66.56 35.84-117.76 0-35.84-15.36-76.8-30.72-138.24l-46.080-138.24-153.6 455.68c25.6 0 46.080 5.12 46.080 5.12 25.6 0 25.6 35.84 0 30.72 0 0-66.56-5.12-112.64-5.12-40.96 0-107.52 5.12-107.52 5.12-25.6 5.12-25.6-30.72-5.12-30.72 0 0 20.48-5.12 46.080-5.12l66.56-179.2-92.16-276.48-153.6 455.68c25.6 0 46.080 5.12 46.080 5.12 25.6 0 20.48 35.84 0 30.72 0 0-66.56-5.12-112.64-5.12-10.24 0-15.36 0-25.6 0 76.8 112.64 204.8 189.44 353.28 189.44 107.52 5.12 204.8-40.96 281.6-107.52v0 0zM128 622.080l199.68-552.96c-138.24 66.56-235.52 215.040-235.52 378.88 0 61.44 10.24 122.88 35.84 174.080v0 0zM522.24 412.16l128-353.28c0 0 0-5.12 5.12-5.12-46.080-15.36-92.16-25.6-143.36-25.6-40.96 0-81.92 5.12-117.76 15.36l128 368.64zM727.040 84.48l128 373.76c25.6 61.44 30.72 107.52 30.72 148.48 0 15.36 0 30.72-5.12 40.96 30.72-61.44 51.2-128 51.2-204.8 5.12-148.48-81.92-286.72-204.8-358.4v0 0z" />
<glyph unicode="&#xe980;" glyph-name="world" d="M51.2 448h921.6v-51.2h-921.6v51.2zM120.32 192h783.36v-51.2h-783.36v51.2zM120.32 704h776.858v-51.2h-776.858v51.2zM520.96-61.952h-18.944l-7.014 5.581c-148.326 118.323-233.37 291.328-233.37 474.675 0 182.835 85.453 355.84 234.394 474.675l15.974 12.698 15.974-12.749c149.299-119.091 234.906-292.096 234.906-474.624s-85.658-355.533-234.906-474.675l-7.014-5.581zM512 839.731c-126.874-108.442-199.168-260.915-199.168-421.427 0-161.178 72.141-313.907 198.656-421.888 127.488 108.698 200.192 261.376 200.192 421.888 0 160.307-72.499 312.781-199.68 421.427zM512-64c-268.186 0-486.4 218.214-486.4 486.4s218.214 486.4 486.4 486.4 486.4-218.214 486.4-486.4-218.214-486.4-486.4-486.4zM512 857.6c-239.974 0-435.2-195.226-435.2-435.2s195.226-435.2 435.2-435.2c239.974 0 435.2 195.226 435.2 435.2s-195.226 435.2-435.2 435.2z" />
<glyph unicode="&#xe981;" glyph-name="xing" d="M225.28 726.528c-8.192 0-14.848-2.56-17.92-8.192-3.584-5.632-3.072-12.8 1.024-20.48l89.6-155.648v-0.512l-141.312-249.344c-3.584-7.168-3.584-14.848 0-20.48 3.072-5.632 9.216-9.216 17.408-9.216h133.12c19.968 0 29.184 13.312 36.352 25.6 0 0 138.24 244.224 143.36 253.952-1.024 1.024-91.648 159.744-91.648 159.744-7.168 11.776-16.896 24.576-37.376 24.576h-132.608zM783.36 908.8c-19.968 0-28.672-12.8-35.84-25.6 0 0-286.208-507.904-295.936-524.288 0.512-1.024 188.928-346.624 188.928-346.624 6.656-11.776 16.896-25.088 36.864-25.088h132.608c8.192 0 14.336 3.072 17.408 8.704 3.584 5.632 3.584 13.312 0 20.48l-187.392 342.528v1.024l294.4 520.192c3.584 7.168 3.584 14.848 0 20.48-2.048 5.12-8.704 8.192-16.384 8.192h-134.656z" />
<glyph unicode="&#xe982;" glyph-name="yelp" d="M879.36 193.485c-5.734-39.424-86.323-141.67-123.187-156.365-12.595-5.12-24.934-3.891-34.56 3.533-6.246 4.915-125.235 197.581-125.235 197.581-9.933 15.002-8.038 34.918 4.25 50.074 11.981 14.541 29.747 20.122 45.107 14.131 0.819-0.512 215.552-71.373 221.798-75.878 9.114-7.578 13.466-19.405 11.52-33.075h0.307zM586.957 407.603c-10.394 15.718-10.189 34.099 0.461 46.899 0 0 134.4 182.989 140.544 187.238 10.394 6.912 23.142 7.219 35.328 1.28 35.379-17.152 106.752-123.136 110.95-163.789v-1.382c1.229-13.875-4.198-25.139-13.978-31.898-6.758-4.25-226.816-59.136-226.816-59.136-16.486-4.915-34.816 3.072-45.158 19.507l-1.331 1.28zM485.12 470.374c-7.936-2.355-32.102-9.933-61.747 38.195 0 0-200.499 315.392-205.158 325.171-2.918 10.854 0.563 23.296 10.342 33.28 29.85 30.976 191.795 76.237 234.138 65.894 13.824-3.533 23.398-12.186 26.726-24.525 2.406-13.619 22.17-306.278 24.986-371.917 2.611-56.115-21.402-63.744-29.286-66.099zM508.262-16.179c-4.25-11.52-13.978-19.098-27.648-21.555-39.014-6.656-161.28 38.451-186.726 68.71-4.915 6.707-7.936 13.414-8.55 20.173-0.563 4.864 0 9.677 1.843 13.926 3.123 7.936 149.35 181.146 149.35 181.146 10.957 13.926 30.464 18.176 48.742 10.906 17.664-6.656 28.672-21.914 27.443-38.349 0-0.102-1.894-227.635-4.454-234.957zM178.944 247.706c-12.032 0.461-22.733 7.578-29.082 19.558-4.557 8.704-7.731 23.194-9.728 40.653-5.478 52.992 1.229 132.71 17.050 158.106 7.424 11.571 18.278 17.664 30.31 17.203 7.885 0 217.856-85.35 217.856-85.35 16.435-6.042 26.675-23.194 25.6-42.65-1.178-18.944-12.083-33.536-28.211-37.786l-223.795-69.734z" />
<glyph unicode="&#xe983;" glyph-name="youtube" d="M768 750.080c51.2-5.12 117.76 0 153.6-40.96 40.96-40.96 46.080-107.52 46.080-158.72 5.12-61.44 5.12-148.48 5.12-204.8-5.12-56.32 0-122.88-25.6-174.080-25.6-56.32-71.68-76.8-128-81.92-61.44-5.12-440.32-5.12-563.2 0-56.32 5.12-122.88 5.12-163.84 51.2-35.84 40.96-35.84 102.4-40.96 153.6 0 61.44 0 148.48 0 209.92 0 56.32 0 122.88 25.6 174.080s76.8 61.44 133.12 66.56c61.44 5.12 435.2 10.24 558.080 5.12zM409.6 576v-307.2l281.6 153.6-281.6 153.6z" />
<glyph unicode="&#xe984;" glyph-name="close-icon" d="M101.607 915.291l877.728-877.728-56.84-56.84-877.728 877.728 56.84 56.84zM922.393 915.291l56.84-56.84-877.728-877.728-56.84 56.84 877.728 877.728z" />
<glyph unicode="&#xe985;" glyph-name="close-large" d="M76.544 934.146l921.597-921.597-50.685-50.685-921.597 921.597 50.685 50.685zM947.456 934.146l50.685-50.685-921.597-921.597-50.685 50.685 921.597 921.597z" />
<glyph unicode="&#xe986;" glyph-name="marker" d="M460.8 755.2h51.2v-563.2h-51.2v563.2zM204.8 499.2h563.2v-51.2h-563.2v51.2z" />
<glyph unicode="&#xe987;" glyph-name="navbar-toggle-icon" d="M0 499.2h1024v-102.4h-1024v102.4zM0 806.4h1024v-102.4h-1024v102.4zM0 192h1024v-102.4h-1024v102.4z" />
<glyph unicode="&#xe988;" glyph-name="overlay-icon" d="M486.4 960h25.6v-1024h-25.6v1024zM0 473.6h1024v-25.6h-1024v25.6z" />
<glyph unicode="&#xe989;" glyph-name="pagination-next" horiz-adv-x="597" d="M121.515-14.848l-72.363 72.363 390.4 390.485-390.4 390.485 72.363 72.363 462.933-462.848z" />
<glyph unicode="&#xe98a;" glyph-name="pagination-previous" horiz-adv-x="597" d="M475.819-14.848l-462.933 462.848 462.933 462.848 72.363-72.363-390.4-390.485 390.4-390.485z" />
<glyph unicode="&#xe98b;" glyph-name="search-icon" d="M460.8 112.64c-213.146 0-386.56 173.414-386.56 386.56s173.414 386.56 386.56 386.56 386.56-173.414 386.56-386.56-173.414-386.56-386.56-386.56zM460.8 829.44c-182.118 0-330.24-148.122-330.24-330.24s148.122-330.24 330.24-330.24 330.24 148.173 330.24 330.24-148.122 330.24-330.24 330.24zM736.728 263.106l204.803-204.803-39.788-39.788-204.803 204.803 39.788 39.788z" />
<glyph unicode="&#xe98c;" glyph-name="search-large" d="M448 66.56c-245.606 0-445.44 199.834-445.44 445.44s199.834 445.44 445.44 445.44c245.632 0 445.44-199.834 445.44-445.44 0-245.632-199.808-445.44-445.44-445.44zM448 911.36c-220.211 0-399.36-179.149-399.36-399.36s179.149-399.36 399.36-399.36c220.211 0 399.36 179.149 399.36 399.36s-179.149 399.36-399.36 399.36zM758.692 208.304l230.399-230.399-32.601-32.601-230.399 230.399 32.601 32.601z" />
<glyph unicode="&#xe98d;" glyph-name="search-navbar" d="M448 83.2c-236.459 0-428.8 192.341-428.8 428.8s192.341 428.8 428.8 428.8c236.459 0 428.8-192.341 428.8-428.8s-192.341-428.8-428.8-428.8zM448 893.867c-210.56 0-381.867-171.307-381.867-381.867s171.307-381.867 381.867-381.867c210.56 0 381.867 171.349 381.867 381.867 0 210.56-171.307 381.867-381.867 381.867zM741.917 251.282l255.989-255.989-33.156-33.156-255.989 255.989 33.156 33.156z" />
<glyph unicode="&#xe98e;" glyph-name="slidenav-next" horiz-adv-x="563" d="M72.909-34.509l-43.418 43.418 439.040 439.091-439.040 439.091 43.418 43.418 482.56-482.509z" />
<glyph unicode="&#xe98f;" glyph-name="slidenav-next-large" horiz-adv-x="542" d="M45.026-48.791l-29.816 29.816 466.974 466.974-466.974 466.974 29.816 29.816 496.791-496.791z" />
<glyph unicode="&#xe990;" glyph-name="slidenav-previous" horiz-adv-x="563" d="M490.291-34.509l-482.56 482.509 482.56 482.509 43.418-43.418-439.040-439.091 439.040-439.091z" />
<glyph unicode="&#xe991;" glyph-name="slidenav-previous-large" horiz-adv-x="542" d="M497.092-48.791l-496.791 496.791 496.791 496.791 29.816-29.816-466.974-466.974 466.974-466.974z" />
<glyph unicode="&#xe992;" glyph-name="spinner" d="M512-46.933c-272.896 0-494.933 222.037-494.933 494.933s222.037 494.933 494.933 494.933 494.933-222.037 494.933-494.933-222.037-494.933-494.933-494.933zM512 908.8c-254.089 0-460.8-206.711-460.8-460.8s206.711-460.8 460.8-460.8c254.089 0 460.8 206.711 460.8 460.8s-206.711 460.8-460.8 460.8z" />
<glyph unicode="&#xe993;" glyph-name="totop" horiz-adv-x="1843" d="M1697.382-5.018l-775.782 775.68-775.782-775.68-86.835 86.835 862.618 862.72 862.618-862.72z" />
<glyph unicode="&#xe994;" glyph-name="accordion-close" d="M0 487.385h1024v-78.769h-1024v78.769zM472.615 960h78.769v-1024h-78.769v1024z" />
<glyph unicode="&#xe995;" glyph-name="accordion-open" d="M0 487.385h1024v-78.769h-1024v78.769z" />
<glyph unicode="&#xe996;" glyph-name="divider-icon" d="M512 38.4c-225.843 0-409.6 183.757-409.6 409.6s183.757 409.6 409.6 409.6 409.6-183.757 409.6-409.6-183.757-409.6-409.6-409.6zM512 755.2c-169.421 0-307.2-137.779-307.2-307.2s137.779-307.2 307.2-307.2 307.2 137.779 307.2 307.2-137.779 307.2-307.2 307.2z" />
<glyph unicode="&#xe997;" glyph-name="form-checkbox" horiz-adv-x="1303" d="M1117.091 866.909l-651.636-605.091-279.273 232.727-93.091-46.545 372.364-418.909 744.727 791.273z" />
<glyph unicode="&#xe998;" glyph-name="form-checkbox-indeterminate" d="M192 448h640v-64h-640v64z" />
<glyph unicode="&#xe999;" glyph-name="form-radio" d="M640 448c0-70.692-57.308-128-128-128s-128 57.308-128 128c0 70.692 57.308 128 128 128s128-57.308 128-128z" />
<glyph unicode="&#xe99a;" glyph-name="form-select" horiz-adv-x="1536" d="M768 896l-192-320h384zM768 128l-192 320h384z" />
<glyph unicode="&#xe99b;" glyph-name="list-bullet" d="M1024 448c0-282.77-229.23-512-512-512s-512 229.23-512 512c0 282.77 229.23 512 512 512s512-229.23 512-512z" />
<glyph unicode="&#xe99c;" glyph-name="nav-parent-close" d="M702.976-19.31l-467.31 467.31 467.31 467.31 56.905-56.905-410.405-410.405 410.405-410.405z" />
<glyph unicode="&#xe99d;" glyph-name="nav-parent-open" d="M512 171.739l-467.31 467.237 56.905 56.905 410.405-410.478 410.405 410.478 56.905-56.905z" />
</font>
</defs>
</svg>
